<?xml version="1.0" encoding="utf-8"?>
<!-- Generator: Adobe Illustrator 25.1.0, SVG Export Plug-In . SVG Version: 6.00 Build 0)  -->
<svg version="1.1" id="Layer_1" xmlns="http://www.w3.org/2000/svg" xmlns:xlink="http://www.w3.org/1999/xlink" x="0px" y="0px"
	 viewBox="0 0 75.3 86.9" style="enable-background:new 0 0 75.3 86.9;" xml:space="preserve">
<style type="text/css">
	.st0{fill:#515594;}
</style>
<path class="st0" d="M37.7,86.9L37,86.5c-0.9-0.5-1.9-1.1-2.8-1.8c-2.7-2-5-4.5-6.6-7.5c-1.7-3-2.8-6.2-3.3-9.6
	c0-0.3-0.1-0.5-0.1-0.8c-0.2,0.1-0.4,0.2-0.7,0.3c-3.1,1.3-6.5,2-9.9,2c-3.5,0-6.8-0.7-10-2c-1-0.4-1.9-0.9-2.8-1.4L0,65.3v-0.9
	c0-1.1,0.1-2.1,0.2-3.1c0.5-3.5,1.6-6.7,3.3-9.7c1.7-3,3.9-5.6,6.7-7.6c0.2-0.2,0.4-0.3,0.6-0.5c-0.2-0.2-0.4-0.3-0.7-0.5
	c-2.7-2-5-4.6-6.6-7.5c-1.8-3-2.9-6.2-3.3-9.6l0-0.1C0.1,24.7,0,23.6,0,22.6v-0.9l0.7-0.4c1-0.6,1.9-1.1,2.9-1.4c3.2-1.3,6.5-2,10-2
	c3.5,0,6.8,0.7,9.9,2c0.2,0.1,0.4,0.2,0.7,0.3c0-0.2,0-0.5,0.1-0.7c0.5-3.4,1.6-6.6,3.3-9.6c1.6-3,3.9-5.6,6.6-7.7
	C35.2,1.5,36.1,1,37,0.4L37.7,0l0.8,0.5C39.3,1,40.1,1.5,41,2.1c2.8,2.1,5.1,4.7,6.8,7.7c1.7,3,2.8,6.2,3.2,9.6c0,0.3,0,0.5,0.1,0.8
	c0.2-0.1,0.5-0.2,0.7-0.3c3.1-1.3,6.5-2,9.9-2c3.5,0,6.8,0.7,9.9,2c1,0.4,2,0.9,2.9,1.5l0.7,0.4v0.8c0,1,0,2-0.1,3.1l0,0.1
	c-0.5,3.4-1.5,6.7-3.2,9.6c-1.8,3-4,5.5-6.8,7.6c-0.2,0.2-0.4,0.3-0.6,0.5c0.2,0.2,0.4,0.3,0.6,0.5c2.7,2,5,4.6,6.7,7.6
	c1.7,3,2.8,6.2,3.2,9.7c0.1,1.1,0.1,2.1,0.1,3.1v0.9l-0.7,0.4c-0.9,0.5-1.8,1-2.8,1.4c-3.1,1.3-6.4,2-9.9,2c-3.5,0-6.8-0.7-10-2
	c-0.2-0.1-0.5-0.2-0.7-0.3c0,0.2,0,0.5-0.1,0.7c-0.4,3.4-1.5,6.7-3.2,9.7c-1.7,3-4,5.6-6.8,7.6c-0.8,0.7-1.7,1.3-2.6,1.8L37.7,86.9z
	 M27.1,64.3c0,0.9,0,1.9,0.1,2.8c0.4,2.9,1.4,5.8,3,8.5c1.5,2.6,3.4,4.9,5.8,6.6c0.6,0.4,1.1,0.8,1.6,1.2c0.5-0.3,1-0.7,1.5-1.1
	c2.5-1.8,4.5-4,6-6.7c1.5-2.7,2.5-5.6,2.9-8.5c0.1-0.6,0.1-1.3,0.1-1.9c-1.6-1-3.1-2.2-4.5-3.6c-2.4-2.3-4.3-5.1-5.5-8.1
	c-1-2.3-1.6-4.8-1.8-7.3c-1.8,1.3-3.3,2.8-4.7,4.6c-1.7,2.3-3,4.9-3.7,7.7C27.4,60.4,27.1,62.4,27.1,64.3z M50.4,63
	c0.8,0.4,1.7,0.9,2.6,1.2c2.8,1.2,5.8,1.8,8.8,1.8c3,0,6-0.6,8.7-1.8c0.6-0.3,1.2-0.5,1.7-0.8c0-0.7,0-1.3-0.1-2
	c-0.4-2.9-1.4-5.8-2.9-8.5c-1.5-2.7-3.5-4.9-5.9-6.7c-0.5-0.4-1.1-0.8-1.6-1.2c-1.7,0.9-3.5,1.6-5.4,2.1c-3.2,0.9-6.5,1.1-9.8,0.7
	c-2.5-0.3-4.9-1-7.2-2c0.2,2.2,0.8,4.3,1.6,6.3c1.1,2.7,2.8,5.1,4.9,7.1C47.2,60.8,48.8,62,50.4,63z M3,63.4
	c0.6,0.3,1.2,0.6,1.8,0.8c2.8,1.2,5.7,1.8,8.8,1.8c3,0,6-0.6,8.8-1.8c0.6-0.3,1.2-0.5,1.8-0.8c0.1-2,0.4-3.9,0.9-5.8
	c0.8-3.2,2.3-6.1,4.2-8.8c1.6-2,3.4-3.8,5.4-5.3c-2-0.9-4.1-1.5-6.2-1.7c-2.9-0.3-5.8-0.2-8.7,0.5c-1.8,0.5-3.6,1.3-5.4,2.3
	c-0.8,0.5-1.6,1-2.4,1.6c-2.4,1.8-4.4,4-5.8,6.7c-1.6,2.7-2.6,5.5-3,8.6C3.1,62.2,3,62.8,3,63.4z M40.7,43.3c2,0.8,4,1.4,6.2,1.7
	c2.9,0.4,5.8,0.2,8.7-0.6c1.8-0.4,3.5-1.1,5.1-2l0.4-0.2c0.7-0.4,1.5-1,2.3-1.5c2.4-1.8,4.4-4.1,6-6.7c1.5-2.6,2.4-5.5,2.8-8.5
	c0-0.7,0.1-1.4,0.1-2c-0.5-0.3-1.1-0.6-1.7-0.8c-2.8-1.2-5.7-1.8-8.8-1.8c-3,0-6,0.6-8.8,1.8c-0.6,0.2-1.2,0.5-1.8,0.8
	c-0.1,1.9-0.3,3.8-0.8,5.7c-0.9,3.2-2.3,6.2-4.3,8.9C44.5,40.1,42.7,41.8,40.7,43.3z M3.1,25.4c0.4,3,1.4,5.9,3,8.5
	c1.5,2.6,3.5,4.9,5.9,6.7c0.5,0.4,1.1,0.8,1.7,1.1c1.7-0.9,3.5-1.6,5.3-2.2c3.3-0.8,6.6-1,9.9-0.6c2.5,0.3,5,1,7.3,2
	c-0.3-2.2-0.8-4.3-1.7-6.4c-1.1-2.7-2.7-5.1-4.8-7.1c-0.8-0.8-1.6-1.5-2.5-2.2l-2.3-1.5c-0.7-0.5-1.6-0.9-2.4-1.2
	c-2.8-1.2-5.8-1.8-8.8-1.8c-3.1,0-6,0.6-8.8,1.8c-0.6,0.2-1.2,0.5-1.8,0.8C3,24.1,3.1,24.8,3.1,25.4z M27.1,21.7
	c1.7,1,3.2,2.2,4.6,3.7c2.3,2.3,4.1,5,5.4,8.1c1,2.4,1.6,4.8,1.9,7.3c1.7-1.3,3.3-2.8,4.6-4.6c1.7-2.4,3-5,3.8-7.8
	c0.5-1.9,0.7-3.9,0.7-5.8c0-0.9,0-1.9-0.1-2.9c-0.4-2.9-1.3-5.8-2.9-8.4c-1.5-2.7-3.5-5-6-6.8c-0.5-0.3-1-0.7-1.6-1
	c-0.6,0.3-1.1,0.7-1.7,1.1c-2.4,1.8-4.3,4.1-5.8,6.7c-1.5,2.7-2.5,5.5-3,8.5C27.2,20.4,27.1,21.1,27.1,21.7z"/>
</svg>
