<svg xmlns="http://www.w3.org/2000/svg" xmlns:xlink="http://www.w3.org/1999/xlink" width="184.6" height="184.321" viewBox="0 0 184.6 184.321"><defs><style>.a{fill:none;}.b{fill:url(#a);}.c{fill:#fff;}.d{clip-path:url(#b);}.e{fill:url(#c);}</style><linearGradient id="a" x1="0.225" y1="0.114" x2="0.709" y2="0.927" gradientUnits="objectBoundingBox"><stop offset="0.001" stop-color="#0b0020"/><stop offset="0.259" stop-color="#462768"/><stop offset="0.398" stop-color="#993f4b"/><stop offset="0.511" stop-color="#d75136"/><stop offset="0.564" stop-color="#f0592e"/><stop offset="0.932" stop-color="#ffd400"/></linearGradient><clipPath id="b"><path class="a" d="M318.253,157.365H198.389l-5.752,18.665-18.326-.4,8.165-22.206V66.287H318.253Z" transform="translate(-174.311 -66.287)"/></clipPath><linearGradient id="c" x1="0.328" y1="0.334" x2="0.872" y2="0.842" gradientUnits="objectBoundingBox"><stop offset="0" stop-color="#442666"/><stop offset="1" stop-color="#903460"/></linearGradient></defs><g transform="translate(-53.116 -66.287)"><path class="b" d="M237.716,208.269s-29.692-5.679-30.029-14.66c-.533-14.18,14.047-17.9,14.047-17.9s-17.679,4.4-20.406-1.077a5.919,5.919,0,0,1-.51-1.561,62.761,62.761,0,1,0-116.692-32.1,75.948,75.948,0,0,0,4.025,25.43c-2.095-1.082-3.352-1.845-3.352-1.845s11.21,15.789,1.736,22.662c-9.585,6.953-33.419,6.52-33.419,6.52s27.654,2.545,30.438,11.139c2.211,6.823-16.992,14.81-16.992,14.81s25.907-10.494,26.15,4.885c.142,8.993-8.66,22.619-8.66,22.619s17.36-18.411,28.914-20.548,5.6,17.044,5.6,17.044,8.876-20.515,19.034-18.168,12.031,35.791,12.031,35.791-1.069-28.952,9.74-31.827,22.148,15.685,22.148,15.685-5.881-20.948,1.7-23.935,25.1,12.173,25.1,12.173-7.461-12.675-5.643-18.284S208.717,204.852,237.716,208.269Z" transform="translate(0 -10.703)"/><g transform="translate(92.993 177.005)"><g transform="translate(0 0)"><path class="c" d="M455.075,1146.5a8.179,8.179,0,0,0-5.094-1.593,26.183,26.183,0,0,0-7.671,1.1c0,1.644-.13,4.475-.372,8.424-.228,3.719-.339,6.469-.341,8.31a5.957,5.957,0,0,0,.425,2.529c1.947.309,3.138.43,3.55.474,1.038.12,1.56.172,2.605.259,0-.419-.068-1.552-.218-3.381-.1-1.22-.147-2.138-.142-2.763,0-.223.011-.422.026-.6,2.02-.4,3.4-.746,4.112-.928,3.607-.95,5.452-3.256,5.5-6.535A6.228,6.228,0,0,0,455.075,1146.5Zm-5.239,7.032c-1.212.359-1.911.542-2.091.577-.037-.585-.068-1.175-.11-1.751a7.72,7.72,0,0,0-.259-1.669,25.135,25.135,0,0,1,2.573.036,1.389,1.389,0,0,1,.852.531,1.436,1.436,0,0,1,.45.946C451.243,1152.8,450.766,1153.255,449.835,1153.53Z" transform="translate(-441.597 -1144.904)"/><path class="c" d="M639.742,1149.206c-.025,1.778-.038,2.667-.062,4.445a41.092,41.092,0,0,0,1.148,11.7c1.279,4.362,3.634,7.007,7.093,7.581s6.016-1.005,7.674-4.706c1.312-2.927,1.987-6.942,2.031-11.952q.091-10.03-1.306-10.007l-2.136.017q-2.856.014-3.414.667-.013,1.041.226,4.145.127,1.623.116,2.723a43.279,43.279,0,0,1-.525,6.718c-.548,3.172-1.44,4.672-2.671,4.524-1.784-.214-2.64-2.716-2.576-7.475q.034-2.574.141-5.755.141-4.243.141-5.76l-.929-.137c-1.888.148-2.833.219-4.719.353a6.5,6.5,0,0,1-.063,1.45c-.107.793-.166,1.284-.168,1.469" transform="translate(-619.339 -1145.828)"/><path class="c" d="M857.44,1168.89c-1.219-1.839-1.827-2.766-3.039-4.622a11.683,11.683,0,0,0,3.853-4.589,16.88,16.88,0,0,0,1.106-6.741,5.6,5.6,0,0,0-2.444-4.9,7.763,7.763,0,0,0-4.527-1.338,11.946,11.946,0,0,0-7.674,2.536c-.042,1.946-.31,5.515-.775,10.65-.364,4.017-.539,7.562-.548,10.625-.011,1.541-.017,2.311-.029,3.852a3.089,3.089,0,0,0,2.335.946q.279.02.839.011c.372-.005.652,0,.838.007l.43.024a2.415,2.415,0,0,1,.924.191c.416-.057.663-1.4.726-4.015.057-2.383.088-4.006.105-4.853a18.967,18.967,0,0,1,.849,1.818q1.529,3.893,2.068,5.27l.663,1.668a12.4,12.4,0,0,0,3.272-.639c1.3-.42,1.949-.637,3.247-1.081C859.613,1172.647,858.871,1171.05,857.44,1168.89Zm-5.164-10.533a2.965,2.965,0,0,1-2.134,1.012q.251-4.48.383-5.9a1.129,1.129,0,0,1,.807-.254,1.882,1.882,0,0,1,1.485.677,2.815,2.815,0,0,1,.57,1.889A3.533,3.533,0,0,1,852.276,1158.357Z" transform="translate(-802.122 -1146.516)"/><path class="c" d="M1046.033,1148.261a7.767,7.767,0,0,0-5.138-1.759,18.275,18.275,0,0,0-7.671,1.662q.015,3.466-.31,11.937-.308,7.983-.294,11.92a9.017,9.017,0,0,0,.464,3.363c2.048-.632,3.284-1.044,3.713-1.188,1.08-.348,1.62-.525,2.7-.886,0-.533-.1-1.93-.289-4.2q-.189-2.269-.2-3.468c0-.286,0-.542.015-.771,2.056-1.141,3.441-1.918,4.162-2.321,3.63-2.075,5.412-4.913,5.37-8.533A7.158,7.158,0,0,0,1046.033,1148.261Zm-5.1,8.926c-1.219.665-1.923,1.049-2.106,1.131-.048-.741-.091-1.486-.144-2.222a11.846,11.846,0,0,0-.291-2.105,19.272,19.272,0,0,1,2.6-.293,1.217,1.217,0,0,1,.87.541,1.717,1.717,0,0,1,.475,1.085C1042.338,1156.058,1041.867,1156.677,1040.933,1157.187Z" transform="translate(-971.952 -1146.338)"/><path class="c" d="M1223.608,1169.755c0-.017.006-.075.019-.177,0-.317-.006-.477-.011-.794q-.017-1.215-1.154-.986c-.421.065-.632.1-1.053.161-.7.139-1.223.232-1.561.281-1.2.171-1.8.094-1.8-.22-.029-2.055.026-4.795.162-8.2.147-3.665.208-6.378.183-8.164l-.951.01a15.109,15.109,0,0,0-3.612.384q-.511,13.1-1.021,26.2c2.536-.669,4.128-1.085,4.792-1.179.441-.065.661-.1,1.1-.166.733-.113,1.3-.215,1.69-.3,2.474-.53,3.7-1.286,3.685-2.175a19.393,19.393,0,0,0-.233-2.307,19.4,19.4,0,0,1-.232-2.316c0-.02,0-.03,0-.05" transform="translate(-1133.643 -1150.964)"/><path class="c" d="M1386.181,1145.208a33.511,33.511,0,0,0-5.24-.28c-2.1.019-3.156.029-5.261.045q-.115.952-.29,2.1a76.612,76.612,0,0,0-.917,10.784c-.07,4.338-.1,6.515-.174,10.882,1.228-.17,1.923-.293,2.09-.339,3.515-1.048,5.261-1.621,8.721-2.86-.008-1.758-.011-2.637-.019-4.4,0-.266-.809-.256-2.423-.008-1.5.231-2.639.387-3.39.491-.01-1.009-.015-1.513-.026-2.523q.25-.138.812-.379l1.123-.48a16.848,16.848,0,0,0,1.891-.884,11.678,11.678,0,0,0,.414-3.643c-1.338-.029-2.009-.052-3.352-.114q.042-2.074.075-3.107l1.345-.111a26.422,26.422,0,0,0,4.341-.755C1386.011,1147.855,1386.068,1146.97,1386.181,1145.208Z" transform="translate(-1278.558 -1144.924)"/></g></g><g transform="translate(109.481 162.482)"><path class="c" d="M602.466,1045.864a.231.231,0,0,1-.179-.071.28.28,0,0,1-.065-.2v-.6a.225.225,0,0,1,.065-.17.25.25,0,0,1,.179-.062h4.692a.308.308,0,0,1,.2.063.211.211,0,0,1,.074.17v.6a.25.25,0,0,1-.085.184.269.269,0,0,1-.192.082Z" transform="translate(-602.223 -1040.52)"/><path class="c" d="M731.377,1015.46l.974-3.385a.443.443,0,0,1,.116-.229.413.413,0,0,1,.235-.048h.255a.41.41,0,0,1,.235.051.4.4,0,0,1,.122.2l1.1,3.407.554-4.5h-.888a.643.643,0,0,1-.382-.09.335.335,0,0,1-.122-.289.349.349,0,0,1,.116-.3.784.784,0,0,1,.433-.085h1.828a.286.286,0,0,1,.221.11.4.4,0,0,1,.1.274.361.361,0,0,1-.107.286.483.483,0,0,1-.323.093h-.068l-.8,5.66a.459.459,0,0,1-.065.232.194.194,0,0,1-.156.056h-.4a.325.325,0,0,1-.2-.051.41.41,0,0,1-.119-.193l-1.228-3.894-1.086,3.905a.341.341,0,0,1-.1.186.35.35,0,0,1-.2.046h-.425a.226.226,0,0,1-.167-.054.451.451,0,0,1-.076-.246l-.86-5.648h-.068a.492.492,0,0,1-.331-.1.354.354,0,0,1-.11-.283.415.415,0,0,1,.091-.277.278.278,0,0,1,.22-.107h1.834a.77.77,0,0,1,.427.085.348.348,0,0,1,.116.3.337.337,0,0,1-.122.289.633.633,0,0,1-.376.09h-.8Z" transform="translate(-716.321 -1009.5)"/><path class="c" d="M803.643,1026.219a1.73,1.73,0,0,0,.552,1.264,2.022,2.022,0,0,0,1.384.446,3.525,3.525,0,0,0,1.443-.354,3.924,3.924,0,0,1,.945-.354.4.4,0,0,1,.283.108.352.352,0,0,1,.113.266.445.445,0,0,1-.119.3,1.232,1.232,0,0,1-.379.265,5.762,5.762,0,0,1-1.168.422,5.075,5.075,0,0,1-1.2.146,2.858,2.858,0,0,1-2.066-.744,2.607,2.607,0,0,1-.775-1.973,2.661,2.661,0,0,1,.82-2.026,2.99,2.99,0,0,1,2.14-.775,2.811,2.811,0,0,1,1.981.724,2.3,2.3,0,0,1,.787,1.755.532.532,0,0,1-.133.425,1.424,1.424,0,0,1-.721.107h-3.889Zm.028-.741h3.685a1.643,1.643,0,0,0-.563-1.084,1.74,1.74,0,0,0-1.174-.411,2.016,2.016,0,0,0-1.268.4A1.874,1.874,0,0,0,803.671,1025.478Z" transform="translate(-782.084 -1021.176)"/><path class="c" d="M939.536,1016.11h.379a.89.89,0,0,1,.47.091.334.334,0,0,1,.136.3.376.376,0,0,1-.119.32,1,1,0,0,1-.521.087h-1.494a.433.433,0,0,1-.314-.1.406.406,0,0,1-.1-.306.347.347,0,0,1,.122-.306.868.868,0,0,1,.461-.085h.1v-5.1h-.091a.859.859,0,0,1-.467-.09.364.364,0,0,1-.127-.317.406.406,0,0,1,.1-.309.461.461,0,0,1,.325-.1h1.426a1.169,1.169,0,0,1,.575.088.37.37,0,0,1,.122.32.338.338,0,0,1-.153.317,1.256,1.256,0,0,1-.578.09h-.255v1.969h2.711v-1.969h-.385a.835.835,0,0,1-.461-.1.351.351,0,0,1-.138-.311.361.361,0,0,1,.127-.32,1.352,1.352,0,0,1,.625-.088H943.4a.425.425,0,0,1,.309.1.408.408,0,0,1,.1.306.376.376,0,0,1-.119.314.71.71,0,0,1-.424.094h-.136v5.1h.091a.867.867,0,0,1,.464.088.346.346,0,0,1,.124.3.375.375,0,0,1-.119.32,1.082,1.082,0,0,1-.549.087H941.97a1.205,1.205,0,0,1-.583-.087.366.366,0,0,1-.124-.32.322.322,0,0,1,.147-.306,1.244,1.244,0,0,1,.56-.085h.277v-2.354h-2.711Z" transform="translate(-903.505 -1009.5)"/><path class="c" d="M1011.784,1027.965a3.417,3.417,0,0,1-1.01.64,2.977,2.977,0,0,1-1.124.22,1.945,1.945,0,0,1-1.361-.47,1.572,1.572,0,0,1-.518-1.222,1.607,1.607,0,0,1,.688-1.387,3.278,3.278,0,0,1,1.933-.492,5.263,5.263,0,0,1,.662.042,5.615,5.615,0,0,1,.685.133v-.04a1.112,1.112,0,0,0-1.279-1.273,2.479,2.479,0,0,0-.984.238,2.426,2.426,0,0,1-.719.237.335.335,0,0,1-.272-.133.526.526,0,0,1-.107-.342q0-.334.625-.566a4.657,4.657,0,0,1,1.6-.232,2.05,2.05,0,0,1,1.506.506,2.024,2.024,0,0,1,.509,1.5v2.564h.277a1.136,1.136,0,0,1,.538.085.331.331,0,0,1,.135.306.389.389,0,0,1-.113.306.491.491,0,0,1-.339.1h-.889a.363.363,0,0,1-.26-.1.494.494,0,0,1-.136-.277Zm-.046-1.783a4.074,4.074,0,0,0-.6-.15,3.62,3.62,0,0,0-.58-.048,2.731,2.731,0,0,0-1.375.294.889.889,0,0,0-.5.793.774.774,0,0,0,.314.634,1.247,1.247,0,0,0,.8.249,2.5,2.5,0,0,0,1.333-.377q.614-.376.614-.784Z" transform="translate(-966.142 -1021.275)"/><path class="c" d="M1078.026,1023.793v-.022a.335.335,0,0,1,.108-.275.523.523,0,0,1,.334-.088.352.352,0,0,1,.32.136,1.176,1.176,0,0,1,.088.56v1.053a.42.42,0,0,1-.107.314.448.448,0,0,1-.323.1.41.41,0,0,1-.263-.088,1.35,1.35,0,0,1-.269-.365,1.947,1.947,0,0,0-.659-.693,1.688,1.688,0,0,0-.891-.235,2,2,0,0,0-1.434.521,1.768,1.768,0,0,0-.552,1.347,1.877,1.877,0,0,0,.529,1.379,1.832,1.832,0,0,0,1.361.534,2.45,2.45,0,0,0,.722-.1,2.365,2.365,0,0,0,.648-.314c.071-.045.168-.115.288-.209a1.071,1.071,0,0,1,.578-.3.378.378,0,0,1,.4.4q0,.447-.846.914a3.666,3.666,0,0,1-1.8.467,2.833,2.833,0,0,1-2.046-.787,2.774,2.774,0,0,1,0-3.931,2.812,2.812,0,0,1,2.038-.79,3.305,3.305,0,0,1,.863.116A4.9,4.9,0,0,1,1078.026,1023.793Z" transform="translate(-1025.026 -1021.275)"/><path class="c" d="M1143.45,1008.655v1.67a.627.627,0,0,1-.094.362.282.282,0,0,1-.241.136h-1.047a.484.484,0,0,1-.334-.1.39.39,0,0,1-.113-.305.333.333,0,0,1,.133-.309,1.265,1.265,0,0,1,.569-.082h.271v-5.8h-.232a1.415,1.415,0,0,1-.628-.087.347.347,0,0,1-.142-.32.386.386,0,0,1,.116-.305.5.5,0,0,1,.337-.1h1.081a.4.4,0,0,1,.238.062.2.2,0,0,1,.085.17v4.058l1.636-1.37a.772.772,0,0,1-.274-.176.322.322,0,0,1-.088-.226.288.288,0,0,1,.124-.255.646.646,0,0,1,.363-.085h1.534a.492.492,0,0,1,.328.1.358.358,0,0,1,.113.289q0,.34-.549.4c-.072.008-.128.015-.17.023a1.455,1.455,0,0,0-.509.178,3.1,3.1,0,0,0-.56.4l-.821.719,2.145,2.332h.487a.529.529,0,0,1,.348.091.378.378,0,0,1,.1.3.386.386,0,0,1-.116.3.484.484,0,0,1-.337.1h-1.534a.607.607,0,0,1-.362-.085.316.316,0,0,1-.113-.271.358.358,0,0,1,.11-.263.793.793,0,0,1,.331-.178l-1.681-1.834Z" transform="translate(-1086.227 -1003.414)"/><path class="c" d="M1280.134,1045.864a.23.23,0,0,1-.178-.071.28.28,0,0,1-.065-.2v-.6a.226.226,0,0,1,.065-.17.249.249,0,0,1,.178-.062h4.692a.307.307,0,0,1,.2.063.211.211,0,0,1,.074.17v.6a.25.25,0,0,1-.085.184.269.269,0,0,1-.193.082Z" transform="translate(-1210.329 -1040.52)"/></g><g transform="translate(65.556 66.287)"><g class="d" transform="translate(0 0)"><g transform="translate(77.705 15.482)"><path class="c" d="M1002.6,394.634a36,36,0,0,0-1.914-3.55,53.208,53.208,0,0,1-4.56-10.3c-1.115-3.341-2.767-6.5-4.112-9.767-1.288-3.133-2.542-6.282-3.707-9.462-1.283-3.5-2.368-7.073-4.247-10.34a41.822,41.822,0,0,0-5.719-7.432,53.7,53.7,0,0,1-4.477-5.008,17.933,17.933,0,0,1-2.145-4.664c-2.019-5.959-3.9-11.964-5.924-17.924a34.873,34.873,0,0,0-2.213-5.04c-1.186-2.249-2.529-4.417-3.806-6.619a1.9,1.9,0,0,1-.3-.52,13.663,13.663,0,0,0-2.7-5.419c-.865-1.2-.724-2.4-.637-3.7.125-1.885.253-3.776.221-5.662-.033-1.923-.463-3.874.3-5.728.721-1.746,1.57-3.438,2.37-5.151,1.119-2.393,2.293-4.761,3.348-7.182.709-1.628.617-1.635,2.12-.6,2.893,1.986,5.816,3.929,8.71,5.912.758.519,1.456,1.126,2.185,1.687,2.673,2.059,7.91,1.17,9.157-2.067a15.778,15.778,0,0,0,.487-2.178,67,67,0,0,0,1.513-6.81,73.49,73.49,0,0,0,.329-8.021c.02-2.039-.126-4.08-.185-6.121a1.356,1.356,0,0,1,.133-.579c1.2-2.585.773-5.146-.055-7.722a10.44,10.44,0,0,1-.493-2.408,2.063,2.063,0,0,0-1.083-1.968c-1.144-.595-2.229-1.3-3.346-1.95-.547-.318-.953-.11-1.359.324-.384.411-.967.667-1.267,1.12-.787,1.19-2.339,1.666-2.829,3.126a1.309,1.309,0,0,1-.631.658,1.7,1.7,0,0,0-1,2.472c.671,1.422,1.41,2.813,2.144,4.2a7.488,7.488,0,0,0,3.308,3.064.786.786,0,0,1,.445,1.163c-.859,2.379-1.643,4.785-2.463,7.178a5.2,5.2,0,0,1-.326.651,1.215,1.215,0,0,1-.334-.088c-1.59-1.181-3.248-2.284-4.729-3.588a11.461,11.461,0,0,1-1.488-2.395,20.293,20.293,0,0,0-1.72-2.331c-.88-.985-1.888-1.854-2.781-2.829a14.1,14.1,0,0,0-5.164-3.52,7.2,7.2,0,0,1-3.13-2.612c-.674-.931-1.3-1.9-1.877-2.9a1.159,1.159,0,0,1-.064-1.015c1.518-2.025,1.9-4.464,2.619-6.791a23.6,23.6,0,0,0,.957-6.979c.013-8.428-7.974-11.941-14.018-9.268a8.6,8.6,0,0,0-4.94,5.678,40.631,40.631,0,0,0-.755,4.306,2.2,2.2,0,0,1-.245.971c-1.228,1.5-.909,3.067-.234,4.634a5.951,5.951,0,0,0,2.01,2.716,3.2,3.2,0,0,1,.866,2.134,11.254,11.254,0,0,1-.3,2.643c-.225,1.509-.454,3.017-.713,4.521-.253,1.464-.639,1.728-2.115,1.822a5.214,5.214,0,0,0-4.145,2.116c-.959,1.3-2.125,2.447-3.136,3.712a4.773,4.773,0,0,0-.918,1.722c-.082.322-.154.643-.221.966a8.284,8.284,0,0,1,2.622,5.5c.17,1.54.33,1.7.714,2.069a8.28,8.28,0,0,1,1.975,2.866,9.538,9.538,0,0,1,.8,2.971,13.11,13.11,0,0,0,1.781-.892l.057-.612.169-1.8.215-2.276.081-.86.7-.506,2.158-1.561.02-.014c.934-1.155,1.714-2.039,2.99-2.039h0a2.539,2.539,0,0,1,1.514.511,2.494,2.494,0,0,1,.392-.035h0a3.64,3.64,0,0,1,2.6,1.5c.326.336.733.753,1.264,1.231l2.326,2.09.858.77-.283,1.117-.8,3.164-.073.286-.155.251-1.2,1.934-1.542,2.486-.261.419-.43.241L934.287,283.4l-.214.119c.155.136.182.377.153.7-.152,1.692-.373,3.379-.457,5.074-.142,2.84-.2,5.685-.289,8.527-.009.286-.284,2.658-.246,3.413s1.174,4.475,1.29,4.922a101.591,101.591,0,0,0,4.664,11.559c.429.793.835,1.6,1.232,2.4a14.96,14.96,0,0,1,2.265-2.921c2.489,4.506,4.958,9.024,7.546,13.473,2.009,3.453,4.194,6.8,6.294,10.2,1.283,2.076,5.914.957,6.84,3.182a19.23,19.23,0,0,0,3.873,5.39,40.163,40.163,0,0,1,3.056,3.82c2.183,3.137,4.209,6.385,6.451,9.478,1.821,2.512,3.969,4.788,5.778,7.307,2.2,3.059,4.231,6.239,6.23,9.434a2.864,2.864,0,0,1-.029,1.985,13.049,13.049,0,0,1-1.043,2.265,5.189,5.189,0,0,0,.551,5.432c.111.132.21.317.354.37,1.193.443.93,1.3.808,2.264-.158,1.246-.744,2.716.282,3.719a20.819,20.819,0,0,0,3.643,2.46c.181.114.507.016.763-.012s.564-.212.755-.124c1.128.518,2.286.107,3.423.148,1.154.042,2.449.43,3.318-.8a.5.5,0,0,1,.141-.1c.344-.224.919-.4.984-.684A2.974,2.974,0,0,0,1002.6,394.634Zm-58.713-80.308a2.3,2.3,0,0,1,.5-.682C944.579,313.458,944.292,313.8,943.887,314.326Z" transform="translate(-931.311 -217.115)"/></g><path class="c" d="M261.3,337.823l1.783-2.106c4.259-7.091.041-15.485-3.241-24.951l-2.593,1.134a145.693,145.693,0,0,1-10.371,11.341,24.916,24.916,0,0,1-4.223,7.279c-3.622,3.946-8.481,4.926-12.955,9.9a13.667,13.667,0,0,0,1.928,2.447c1.7,1.574,1.133,1.756,1.313,4.358-.145,1.708-.569,2.1-1.783,1.3-1.048,1.437-.938,2.114-1.868,3.044-1.742.972-2.67-.532-3.318-.208-.587.786-1.273.618-2.131-.736-.645-.21-1.023.274-1.544-.562-1.734.423-1.709-1.229-1.77-4.625.378-.864.732-1.355,1.11-2.219,1.4-1.944,2.282-3.767,3.687-5.711,5.184-6.91,6.795-10.835,14.261-16.04,1.982-4.459,9.693-12.626,13.127-17.174,1.946-6.809,5.854-9.3,14.181-8.844,2.674.149,3.239-.16,4.618-3.956-4.667,1.077-4.615-1.03-8.751,1.3,3.276-7.018-3.213-18.807,5.505-26.294,1.524-1.308,4.053-1.521,7.459-.764,5.916-2.941,10.137,1.085,12.887,5.958,1.64,2.906,4.472,12.311,2.832,15.591-1.077.79-2.1,1.581-3.241,2.268l-1.458-5.023c.287,2.585.687,3.637,0,6.157a24.2,24.2,0,0,0-4.538,1.62,16.658,16.658,0,0,0-.162,5.023c1.664,1.064,4.575.573,6.077,1.054,2.647.849,3.912,2.838,4.209,5.517.426,3.847,1.414,2.316,2.857,5.529a7.518,7.518,0,0,1,.136,5.929,20.965,20.965,0,0,0,7.937-3.056l.313-3.332.215-2.285,2.394-1.731c2.025-2.513,1.583-1.7,4.273.717l2.336,2.1-.8,3.177-2.754,4.438L291.178,325.45l-.178-.3c-.375,3.655-1.288,6.732-1.984,11.138.162,1.4,1.029,2.137,1.459,3.484Z" transform="translate(-215.787 -244.356)"/></g></g><path class="e" d="M230.927,840.413c-2.642,1.459-5.5,2.746-8.049,5.581a20.757,20.757,0,0,0,2.431,2.7c1.7,1.572,1.131,1.5,1.311,4.1-.068.8-.2,1.087-.438,1.087-.275,0-.7-.376-1.342-.806-1.046,1.435-.937,2.871-1.865,3.8a2.111,2.111,0,0,1-1.04.3c-.973,0-1.614-.8-2.1-.8a.382.382,0,0,0-.174.04.687.687,0,0,1-.54.334c-.46,0-.981-.617-1.588-1.575a.6.6,0,0,0-.186-.03c-.353,0-.626.316-.905.316-.144,0-.291-.084-.45-.34a2.182,2.182,0,0,1-.5.073c-1.056,0-.449-1.439-.5-4.438.378-.863.731-1.353,1.108-2.216,1.4-1.941,2.025-3.762,3.427-5.7,4.13-5.506,5.652-8.881,9.892-12.625l-.333-1.754c-3.5,2.938-5.287,5.669-7.581,8.991-.91,1.317-1.941,2.809-3.192,4.478l-.008.011-.008.011a25.687,25.687,0,0,0-1.82,3.021,23.01,23.01,0,0,1-1.607,2.681l-.1.132-.065.149c-.164.374-.327.676-.5,1-.194.36-.4.731-.609,1.22l-.133.3.006.332c.016.918-.034,1.7-.075,2.32-.081,1.246-.146,2.23.553,2.975a2.042,2.042,0,0,0,1.536.634,1.882,1.882,0,0,0,.962.267,1.946,1.946,0,0,0,.455-.054,2.891,2.891,0,0,0,2.223,1.343,2.047,2.047,0,0,0,.825-.177,3.916,3.916,0,0,0,1.988.6,3.633,3.633,0,0,0,1.78-.489l.184-.1.149-.149a5.561,5.561,0,0,0,1.268-2.344c.04-.119.079-.237.12-.354a1.955,1.955,0,0,0,.743.149c1.155,0,1.812-.834,1.951-2.477l.01-.117-.008-.116c-.041-.593-.039-1.042-.038-1.4.006-1.631-.212-2.276-1.756-3.705-.45-.417-1-.993-1.44-1.488a27.584,27.584,0,0,1,6.184-4.2Z" transform="translate(-143.782 -683.927)"/></g></svg>