<?xml version="1.0" encoding="utf-8"?>
<!-- Generator: Adobe Illustrator 25.2.1, SVG Export Plug-In . SVG Version: 6.00 Build 0)  -->
<svg version="1.1" id="Layer_2" xmlns="http://www.w3.org/2000/svg" xmlns:xlink="http://www.w3.org/1999/xlink" x="0px" y="0px"
	 viewBox="0 0 174 36.7" style="enable-background:new 0 0 174 36.7;" xml:space="preserve">
<style type="text/css">
	.st0{fill:#231F20;}
	.st1{fill:#00BED6;}
	.st2{fill:#236092;}
</style>
<g>
	<g>
		<g>
			<path class="st0" d="M44.3,10c-0.5-0.6-1.1-1.1-1.9-1.5C41.6,8.2,40.9,8,40,8c-1,0-1.9,0.2-2.7,0.5c-0.8,0.4-1.5,0.9-2,1.5
				s-1,1.4-1.3,2.3c-0.4,0.9-0.4,1.8-0.4,2.7c0,0.9,0.2,1.8,0.4,2.7c0.3,0.8,0.7,1.6,1.3,2.2c0.5,0.6,1.2,1.1,2,1.5
				c0.8,0.4,1.7,0.5,2.7,0.5c1,0,1.9-0.2,2.7-0.6c0.8-0.4,1.4-1,1.9-1.8l2,1.5c-0.1,0.2-0.4,0.4-0.7,0.8c-0.4,0.4-0.8,0.7-1.3,1
				c-0.5,0.4-1.2,0.6-1.9,0.9c-0.8,0.3-1.7,0.4-2.7,0.4c-1.4,0-2.7-0.3-3.7-0.8c-1.1-0.5-2-1.2-2.8-2c-0.8-0.9-1.4-1.9-1.8-2.9
				c-0.4-1.1-0.6-2.2-0.6-3.3c0-1.3,0.3-2.6,0.7-3.7c0.4-1.1,1.1-2.1,1.9-3c0.8-0.8,1.8-1.5,2.9-1.9s2.4-0.7,3.7-0.7
				c1.1,0,2.3,0.3,3.4,0.7c1.1,0.4,2,1.1,2.7,2L44.3,10z"/>
			<path class="st0" d="M49.8,6.3h11.3v2.2h-8.9v5.2h8.3v2.2h-8.3v5.6h9.4v2.2H49.8V6.3z"/>
			<path class="st0" d="M88,6.3V17c0,0.5,0.1,1.1,0.3,1.7c0.2,0.6,0.4,1.1,0.7,1.6c0.4,0.5,0.8,0.9,1.3,1.2c0.5,0.4,1.2,0.4,2,0.4
				c0.8,0,1.5-0.2,2-0.4c0.5-0.4,1-0.7,1.3-1.2c0.4-0.5,0.6-1.1,0.7-1.6c0.2-0.6,0.3-1.1,0.3-1.7V6.3H99v11.1c0,1.1-0.2,1.9-0.5,2.7
				s-0.8,1.6-1.4,2.1c-0.6,0.6-1.3,1.1-2.1,1.4c-0.8,0.4-1.7,0.5-2.7,0.5s-1.9-0.2-2.7-0.5c-0.8-0.4-1.5-0.8-2.1-1.4
				c-0.6-0.6-1.1-1.3-1.4-2.1s-0.5-1.8-0.5-2.7V6.3H88z"/>
			<path class="st0" d="M103.6,6.3H115v2.2H106v5.2h8.3v2.2H106v5.6h9.4v2.2h-11.8V6.3z"/>
			<path class="st0" d="M118.9,6.3h3.1l9.6,14.4h0.1V6.3h2.4v17.5h-3l-9.7-14.4h-0.1v14.4h-2.4V6.3z"/>
			<path class="st0" d="M151.1,10c-0.5-0.6-1.1-1.1-1.9-1.5c-0.8-0.3-1.6-0.4-2.4-0.4c-1,0-1.9,0.2-2.7,0.5c-0.8,0.4-1.5,0.9-2,1.5
				s-1,1.4-1.3,2.3c-0.4,0.9-0.4,1.8-0.4,2.7c0,0.9,0.2,1.8,0.4,2.7c0.3,0.8,0.7,1.6,1.3,2.2c0.5,0.6,1.2,1.1,2,1.5s1.7,0.5,2.7,0.5
				c1,0,1.9-0.2,2.7-0.6c0.8-0.4,1.4-1,1.9-1.8l2,1.5c-0.1,0.2-0.4,0.4-0.7,0.8c-0.4,0.4-0.8,0.7-1.3,1c-0.5,0.4-1.2,0.6-1.9,0.9
				c-0.8,0.3-1.7,0.4-2.7,0.4c-1.4,0-2.7-0.3-3.7-0.8c-1.1-0.5-2-1.2-2.8-2c-0.8-0.9-1.4-1.9-1.8-2.9c-0.4-1.1-0.8-2.1-0.8-3.3
				c0-1.3,0.3-2.6,0.7-3.7s1.1-2.1,1.9-3c0.8-0.8,1.8-1.5,2.9-1.9c1.1-0.4,2.4-0.7,3.7-0.7c1.1,0,2.3,0.3,3.4,0.7
				c1.1,0.4,2,1.1,2.7,2L151.1,10z"/>
			<path class="st0" d="M156.6,6.3h11.3v2.2H159v5.2h8.3v2.2H159v5.6h9.4v2.2h-11.8V6.3z"/>
		</g>
		<path class="st0" d="M80.3,20.9c0.5-0.7,1.1-1.5,1.4-2.3c0.4-1.1,0.7-2.3,0.7-3.6s-0.3-2.5-0.7-3.6s-1.1-2.1-1.9-2.9
			C79,7.7,78.1,7,76.9,6.5c-1.1-0.4-2.4-0.7-3.7-0.7s-2.6,0.3-3.7,0.7c-1.1,0.4-2.1,1.1-2.9,1.9c-0.8,0.8-1.4,1.8-1.9,2.9
			S64,13.7,64,15s0.3,2.5,0.7,3.6c0.4,1.1,1.1,2.1,1.9,2.9c0.8,0.8,1.8,1.5,2.9,1.9c1.1,0.4,2.4,0.7,3.7,0.7s2.6-0.3,3.7-0.7
			c0.7-0.3,1.3-0.7,1.9-1.1c0.7,0.7,2.3,2.3,3.7,3.8l1.4-1.4C82,22.7,80.9,21.6,80.3,20.9z M75.9,21.4c-0.8,0.4-1.7,0.5-2.7,0.5
			c-1,0-1.9-0.2-2.7-0.5c-0.8-0.4-1.5-0.9-2-1.5c-0.5-0.6-1.1-1.3-1.3-2.2c-0.4-0.9-0.4-1.8-0.4-2.7s0.2-1.9,0.4-2.7
			c0.4-0.9,0.8-1.6,1.3-2.2c0.5-0.6,1.2-1.1,2-1.5C71.3,8.2,72.1,8,73.2,8c1,0,1.9,0.2,2.7,0.5c0.8,0.4,1.5,0.9,2,1.5
			c0.6,0.6,1.1,1.3,1.3,2.2c0.4,0.9,0.4,1.8,0.4,2.7s-0.2,1.9-0.4,2.7c-0.4,0.9-0.8,1.6-1.3,2.2C77.4,20.5,76.7,21,75.9,21.4z"/>
		<g>
			<path class="st0" d="M120.1,35c0.2,0.3,0.4,0.4,0.7,0.6c0.3,0.1,0.5,0.2,0.9,0.2c0.2,0,0.4,0,0.5-0.1c0.2-0.1,0.4-0.1,0.4-0.3
				c0.2-0.1,0.3-0.3,0.4-0.4c0.1-0.2,0.2-0.4,0.2-0.5c0-0.3-0.1-0.5-0.3-0.6c-0.2-0.2-0.4-0.3-0.6-0.4s-0.5-0.2-0.9-0.3
				c-0.4-0.1-0.6-0.2-0.9-0.4c-0.3-0.2-0.4-0.4-0.6-0.6c-0.2-0.3-0.3-0.6-0.3-1.1c0-0.2,0.1-0.4,0.2-0.7c0.1-0.3,0.3-0.4,0.4-0.6
				c0.2-0.2,0.4-0.4,0.8-0.5c0.4-0.2,0.7-0.2,1.1-0.2c0.4,0,0.8,0.1,1.1,0.2c0.4,0.1,0.7,0.4,1,0.7l-0.8,0.7
				c-0.1-0.2-0.3-0.4-0.5-0.4s-0.4-0.2-0.8-0.2c-0.3,0-0.5,0-0.7,0.1c-0.2,0.1-0.4,0.2-0.4,0.3c-0.1,0.1-0.2,0.3-0.3,0.4
				c0,0.1-0.1,0.3-0.1,0.4c0,0.3,0.1,0.5,0.3,0.7c0.2,0.2,0.4,0.3,0.6,0.4c0.3,0.1,0.5,0.2,0.9,0.3c0.3,0.1,0.6,0.2,0.9,0.4
				c0.3,0.2,0.4,0.4,0.6,0.6c0.2,0.3,0.3,0.6,0.3,1.1c0,0.4-0.1,0.6-0.2,1c-0.2,0.3-0.4,0.5-0.5,0.7c-0.3,0.2-0.5,0.4-0.8,0.4
				c-0.3,0.1-0.6,0.2-1,0.2c-0.4,0-0.9-0.1-1.3-0.3c-0.4-0.2-0.7-0.4-1-0.8L120.1,35z"/>
			<path class="st0" d="M125.7,29.2h4.7v0.9h-3.7v2.1h3.4v0.9h-3.4v2.3h3.9v0.9h-4.9V29.2z"/>
			<path class="st0" d="M137.2,30.8c-0.2-0.3-0.4-0.4-0.8-0.6c-0.4-0.2-0.6-0.2-1-0.2c-0.4,0-0.8,0.1-1.1,0.3
				c-0.4,0.2-0.6,0.4-0.9,0.6s-0.4,0.6-0.5,1c-0.1,0.4-0.2,0.7-0.2,1.1c0,0.4,0.1,0.7,0.2,1.1c0.1,0.4,0.3,0.6,0.5,0.9
				c0.3,0.3,0.5,0.4,0.9,0.6c0.4,0.2,0.7,0.3,1.1,0.3c0.4,0,0.8-0.1,1.1-0.3c0.4-0.2,0.6-0.4,0.8-0.7l0.8,0.6
				c-0.1,0.1-0.2,0.2-0.3,0.4c-0.2,0.2-0.4,0.3-0.5,0.4c-0.3,0.2-0.5,0.3-0.8,0.4c-0.4,0.1-0.7,0.2-1.1,0.2c-0.5,0-1.1-0.1-1.5-0.4
				c-0.4-0.2-0.9-0.5-1.1-0.9c-0.4-0.4-0.5-0.8-0.7-1.2c-0.2-0.4-0.3-0.9-0.3-1.3c0-0.5,0.1-1.1,0.3-1.5c0.2-0.4,0.4-0.9,0.8-1.2
				c0.4-0.4,0.7-0.6,1.1-0.8c0.4-0.2,1-0.3,1.5-0.3c0.4,0,1,0.1,1.4,0.3c0.4,0.2,0.8,0.4,1.1,0.9L137.2,30.8z"/>
			<path class="st0" d="M140.4,29.2v4.4c0,0.3,0,0.4,0.1,0.7c0.1,0.3,0.2,0.4,0.3,0.7c0.1,0.3,0.4,0.4,0.5,0.5
				c0.3,0.1,0.5,0.2,0.9,0.2c0.4,0,0.6-0.1,0.9-0.2c0.3-0.1,0.4-0.3,0.5-0.5c0.1-0.3,0.3-0.4,0.3-0.7c0.1-0.3,0.1-0.4,0.1-0.7v-4.4
				h1v4.6c0,0.4-0.1,0.8-0.2,1.1c-0.2,0.4-0.4,0.6-0.6,0.9c-0.3,0.3-0.5,0.4-0.9,0.6c-0.4,0.2-0.7,0.2-1.1,0.2
				c-0.4,0-0.8-0.1-1.1-0.2c-0.4-0.2-0.6-0.4-0.9-0.6c-0.3-0.3-0.4-0.5-0.6-0.9s-0.2-0.7-0.2-1.1v-4.6H140.4z"/>
			<path class="st0" d="M147,29.2h2.6c0.4,0,0.9,0.1,1.1,0.2c0.3,0.1,0.5,0.3,0.7,0.4s0.3,0.4,0.4,0.6c0.1,0.3,0.1,0.4,0.1,0.7
				s0,0.4-0.1,0.7c-0.1,0.2-0.2,0.4-0.4,0.6s-0.4,0.4-0.5,0.4c-0.3,0.1-0.4,0.2-0.7,0.2l2,3.3h-1.2l-1.9-3.2H148v3.2h-1L147,29.2
				L147,29.2z M147.9,32.4h1.3c0.2,0,0.4,0,0.5-0.1c0.2-0.1,0.4-0.1,0.5-0.2s0.3-0.2,0.4-0.4s0.2-0.4,0.2-0.6s-0.1-0.4-0.2-0.6
				c-0.1-0.2-0.2-0.3-0.4-0.4c-0.2-0.1-0.4-0.2-0.5-0.2c-0.2,0-0.4-0.1-0.5-0.1h-1.3V32.4z"/>
			<path class="st0" d="M153.4,29.2h1v7.3h-1V29.2z"/>
			<path class="st0" d="M158,30.2h-2.3v-0.9h5.7v0.9h-2.3v6.3h-1L158,30.2L158,30.2z"/>
			<path class="st0" d="M164.2,33.4l-2.7-4.2h1.2l1.9,3.2l2-3.2h1.2l-2.7,4.2v3.1h-1L164.2,33.4L164.2,33.4z"/>
		</g>
		<polygon class="st1" points="23.7,19.1 23.7,10.2 0,24.5 0,24.6 0,33.3 0,33.3 		"/>
		<polygon class="st2" points="0.2,0.1 0.2,8.9 9.9,14.7 17.2,10.3 		"/>
	</g>
	<g>
		<path class="st0" d="M172.1,6.1c1,0,1.9,0.8,1.9,1.9s-0.8,1.9-1.9,1.9c-1,0-1.9-0.8-1.9-1.9S171.1,6.1,172.1,6.1z M172.1,9.3
			c0.8,0,1.3-0.6,1.3-1.4s-0.6-1.4-1.3-1.4c-0.8,0-1.3,0.6-1.3,1.4S171.4,9.3,172.1,9.3z M171.4,6.9h0.6c0.4,0,0.9,0.1,0.9,0.5
			c0,0.4-0.3,0.5-0.4,0.6l0.5,0.8h-0.5L172,8.1h-0.1v0.7h-0.4L171.4,6.9L171.4,6.9z M171.9,7.7h0.3c0.1,0,0.3,0,0.3-0.2
			s-0.2-0.2-0.3-0.2h-0.3V7.7z"/>
	</g>
</g>
</svg>
