<svg width="2209" height="701" viewBox="0 0 2209 701" fill="none" xmlns="http://www.w3.org/2000/svg">
<path d="M328.837 332.511L320.436 356.977L335.781 350.949L328.837 332.511Z" fill="#F03E1E"/>
<path d="M334.668 307.502L328.85 332.601L335.791 351.039L334.668 307.502Z" fill="#F79059"/>
<path d="M365.818 351.648L334.674 307.445L335.8 350.978L365.818 351.648Z" fill="#C6361F"/>
<path d="M342.041 317.946L365.786 351.648L392.816 346.478L365.745 331.265L342.041 317.946Z" fill="#F36717"/>
<path d="M365.741 331.256L392.812 346.469L387.004 319.182L365.741 331.256Z" fill="#C6361F"/>
<path d="M365.745 331.242L387.007 319.169L342.041 317.923L365.745 331.242Z" fill="#F79059"/>
<path d="M356.957 309.386L342.041 317.965L387.007 319.211L384.458 307.245L382.969 293.964L372.04 300.459L356.957 309.386Z" fill="#F36717"/>
<path d="M356.936 309.312L356.87 309.198L356.936 309.312Z" fill="#F36717"/>
<path d="M334.465 270.376L334.642 307.491L342.038 317.992L334.465 270.376Z" fill="#F36717"/>
<path d="M356.907 309.287L334.522 270.569L342.064 317.992L356.98 309.413L356.907 309.287Z" fill="#F03E1E"/>
<path d="M346.525 290.273L347.616 281.024L347.6 281.03L348.549 273.666L349.763 265.093L334.465 270.339L345.732 289.957L346.525 290.273Z" fill="#F79059"/>
<path d="M372.027 300.386L356.944 294.371L346.515 290.21L345.721 289.894L345.715 289.891L356.871 309.186L356.944 309.312L372.027 300.386Z" fill="#C6361F"/>
<path d="M356.966 294.462L372.049 300.477L382.978 293.981L356.966 294.462Z" fill="#F79059"/>
<path d="M356.966 294.391L382.978 293.91L383.443 288.275L384.894 270.693L385.356 265.112L356.966 294.391Z" fill="#C6361F"/>
<path d="M363.515 273.62H348.565L347.619 280.984L347.632 280.981L347.777 279.751L363.515 273.62Z" fill="#F03E1E"/>
<path d="M363.502 273.68L366.959 272.333L349.766 265.11L348.552 273.68H363.502Z" fill="#F03E1E"/>
<path d="M385.388 265.142L349.808 265.082L367 272.305L385.388 265.142Z" fill="#C6361F"/>
<path d="M367.003 272.274L363.547 273.622L347.809 279.75L347.663 280.98L346.572 290.229L357.001 294.391L385.391 265.112L367.003 272.274Z" fill="#F36717"/>
<path d="M383.464 288.297L404.72 270.715H384.915L383.464 288.297Z" fill="#F36717"/>
<path d="M338.01 265.076L334.465 270.328L349.763 265.082L338.01 265.076Z" fill="#C6361F"/>
<path d="M343.082 257.528L312.764 270.328H334.437L337.985 265.076L343.082 257.528Z" fill="#F03E1E"/>
<path d="M321.403 257.528L318.433 261.926L312.764 270.328L343.082 257.528H321.403Z" fill="#F79059"/>
<path d="M321.475 257.555L306.977 261.953H318.506L321.475 257.555Z" fill="#F36717"/>
<path d="M310.477 257.555L306.977 261.953L321.478 257.555H310.477Z" fill="#C6361F"/>
<path d="M285.523 261.953H306.953L315.82 250.152L285.523 261.953Z" fill="#F36717"/>
<path d="M293.287 250.152L285.523 261.953L315.817 250.152H293.287Z" fill="#F79059"/>
<path d="M289.435 256.008L293.264 250.186H263.765L289.435 256.008Z" fill="#F36717"/>
<path d="M412.422 284.336L404.741 270.777L392.62 280.804L412.422 284.336Z" fill="#F03E1E"/>
<path d="M335.751 350.983L320.406 357.01C320.406 357.01 317.455 374.737 317.294 375.711L365.77 351.653L335.751 350.983Z" fill="#F36717"/>
<path d="M365.779 351.623L317.303 375.681L309.471 422.766L332.289 393.936L365.779 351.623Z" fill="#C6361F"/>
<path d="M332.333 393.984L382.567 357.031L393.802 348.468L392.854 346.498L365.823 351.672L332.333 393.984Z" fill="#F79059"/>
<path d="M332.333 393.909L390.779 406.32L382.567 356.956L332.333 393.909Z" fill="#F79059"/>
<path d="M364.697 417.426L364.637 417.594L364.697 417.426Z" fill="#F36717"/>
<path d="M332.333 393.992L364.723 417.516L396.541 441.039L390.779 406.404L332.333 393.992Z" fill="#F36717"/>
<path d="M364.679 417.46L332.289 393.936L309.471 422.766L364.679 417.46Z" fill="#F03E1E"/>
<path d="M364.719 417.516L309.511 422.822L306.481 441.039L364.719 417.516Z" fill="#C6361F"/>
<path d="M364.659 417.669L364.719 417.501L306.481 441.025L346.562 468.453L364.659 417.669Z" fill="#F36717"/>
<path d="M364.642 417.568L351.845 453.481L354.944 444.785L365.932 454.445L396.517 440.924L364.702 417.401L364.642 417.568Z" fill="#C6361F"/>
<path d="M332.296 458.682L306.449 440.993L261.423 520.992L279.991 504.669L332.296 458.682Z" fill="#C6361F"/>
<path d="M280.003 504.703L346.544 468.458L332.308 458.716L280.003 504.703Z" fill="#F79059"/>
<path d="M279.991 504.762L261.423 521.085L271.422 557.086L279.991 504.762Z" fill="#F03E1E"/>
<path d="M280.006 504.762L271.437 557.086L306.438 500.088L280.006 504.762Z" fill="#C6361F"/>
<path d="M280.003 504.703L306.435 500.029L346.544 468.458L280.003 504.703Z" fill="#F36717"/>
<path d="M306.443 499.938L332.443 530.438L346.552 468.367L306.443 499.938Z" fill="#F03E1E"/>
<path d="M288.969 545.055L332.467 530.553L306.468 500.054L288.969 545.055Z" fill="#C6361F"/>
<path d="M271.437 589.984L290.757 571.138L332.438 530.485L288.936 544.984L271.437 589.984Z" fill="#F36717"/>
<path d="M326.49 598.812L332.435 530.434L290.758 571.09L326.49 598.812Z" fill="#F79059"/>
<path d="M290.757 571.09L271.437 589.936L326.49 598.812L290.757 571.09Z" fill="#C6361F"/>
<path d="M321.437 656.992L326.49 598.872L271.437 589.992L321.437 656.992Z" fill="#F36717"/>
<path d="M410.246 493.475L441.545 520.992L396.519 440.993L365.932 454.514L410.246 493.475Z" fill="#C6361F"/>
<path d="M365.932 454.551L354.944 444.891L351.845 453.587L354.751 465.537L422.977 504.703L410.247 493.512L365.932 454.551Z" fill="#F79059"/>
<path d="M431.553 557.086L441.552 521.085L422.983 504.762L431.553 557.086Z" fill="#F03E1E"/>
<path d="M422.993 504.762L396.561 500.088L431.563 557.086L422.993 504.762Z" fill="#C6361F"/>
<path d="M354.738 465.537L354.843 465.964L396.533 500.029L422.965 504.703L354.738 465.537Z" fill="#F36717"/>
<path d="M370.525 530.438L396.524 499.938L354.834 465.873L370.525 530.438Z" fill="#F03E1E"/>
<path d="M370.558 530.553L414.056 545.055L396.557 500.054L370.558 530.553Z" fill="#C6361F"/>
<path d="M370.558 530.485L412.238 571.141L431.559 589.984L414.056 544.984L370.558 530.485Z" fill="#F36717"/>
<path d="M412.238 571.09L370.558 530.434V530.437L376.506 598.812L412.238 571.09Z" fill="#F79059"/>
<path d="M376.497 598.812L431.55 589.933L412.229 571.09L376.497 598.812Z" fill="#C6361F"/>
<path d="M381.55 656.992L431.55 589.992L376.497 598.872L381.55 656.992Z" fill="#F36717"/>
<path d="M370.573 530.438L346.572 468.367L332.466 530.438H370.573Z" fill="#F36717"/>
<path d="M351.872 453.496L346.572 468.367L370.573 530.438L354.879 465.873L354.778 465.446L351.872 453.496Z" fill="#C6361F"/>
<path d="M370.573 530.438H332.466L337.01 571.094L370.573 530.438Z" fill="#F79059"/>
<path d="M370.522 530.47L336.959 571.126L362.373 603.383L370.522 530.47Z" fill="#F36717"/>
<path d="M356.387 656.992L362.376 603.406L336.959 571.146L356.387 656.992Z" fill="#F36717"/>
<path d="M351.507 701L356.424 657.002L337.663 574.106L351.507 701Z" fill="#F03E1E"/>
<path d="M177.436 228.06C177.464 229.297 177.717 230.656 178.125 232.102C177.881 230.783 177.651 229.442 177.436 228.06Z" fill="#F36717"/>
<path d="M306.457 441.039L320.431 357.039C317.063 357.821 257.257 416.665 257.254 416.665L306.457 441.039Z" fill="#F03E1E"/>
<path d="M261.062 357.021L252.609 372.664L320.4 356.939L278.4 324.938L261.106 356.939C261.233 356.97 261.185 356.999 261.062 357.021Z" fill="#C6361F"/>
<path d="M252.628 372.791L261.081 357.148C258.02 357.726 182.062 355.469 182.062 355.469L195.418 386.062L252.628 372.791Z" fill="#F36717"/>
<path d="M261.102 357.038C261.225 357.016 261.272 356.987 261.146 356.956C207.582 342.859 167.479 283.685 167.479 283.685L182.082 355.359C182.082 355.359 258.041 357.617 261.102 357.038Z" fill="#C6361F"/>
<path d="M129.846 390.041C129.846 390.041 161.935 409.473 175.991 415.914L182.113 355.33L129.846 390.041Z" fill="#F03E1E"/>
<path d="M182.073 355.318L175.951 415.902C175.951 415.902 231.491 443.486 263.429 445.914L221.673 398.912L195.43 385.912L182.073 355.318Z" fill="#C6361F"/>
<path d="M70.4531 343.064C70.4531 343.064 108.216 377.461 129.829 390.18L182.096 355.469L70.4531 343.064Z" fill="#F36717"/>
<path d="M57.4391 319.94L103.749 332.766L27.4397 202.94C16.1666 286.845 57.4391 319.94 57.4391 319.94Z" fill="#F03E1E"/>
<path d="M27.4307 202.94L103.74 332.766V267.853C72.7792 257.335 27.4307 202.94 27.4307 202.94Z" fill="#C6361F"/>
<path d="M103.747 267.853V332.766L123.438 273.94L103.747 267.853Z" fill="#F36717"/>
<path d="M139.497 296.226L182.06 355.305L162.027 256.996L139.497 296.226Z" fill="#F36717"/>
<path d="M106.525 230.03L50.9785 202.984C50.9785 202.984 90.1861 260.887 123.458 273.984L162.071 257.076L106.525 230.03Z" fill="#F03E1E"/>
<path d="M103.747 332.872L182.08 355.453L146.67 306.297L103.747 332.872Z" fill="#F79059"/>
<path d="M139.494 296.367L162.024 257.137L123.411 274.042L139.494 296.367Z" fill="#F79059"/>
<path d="M257.23 416.68C257.23 416.68 317.039 357.835 320.406 357.054L195.406 386.054L221.649 399.054L257.23 416.68Z" fill="#F79059"/>
<path d="M105.706 227.481L64.6263 100.587L63.3583 96.6755C55.8608 105.972 48.1863 119.19 43.0889 137.49C37.3622 156.371 37.4444 173.076 37.4444 173.076C40.1733 186.98 50.9626 203.079 50.9626 203.079L106.512 230.125L105.706 227.481Z" fill="#F36717"/>
<path d="M99.5302 146.602L99.5397 146.615C79.83 111.597 86.4199 76.9779 86.4199 76.9779C86.4199 76.9779 75.1373 81.952 63.3678 96.5327C63.3615 96.539 63.333 96.5738 63.333 96.5738L64.601 100.489L105.681 227.383L99.5302 146.602Z" fill="#F79059"/>
<path d="M105.729 227.481L106.535 230.125L123.468 192.432L130.428 179.078L99.5876 146.714L99.5781 146.701L105.729 227.481Z" fill="#C6361F"/>
<path d="M123.411 192.352L179.41 181.995C167.473 162.232 162.293 117.766 162.293 117.766L130.371 178.998L123.411 192.352Z" fill="#F79059"/>
<path d="M123.411 192.339L162.024 257.078C158.034 215.078 179.41 181.983 179.41 181.983L123.411 192.339Z" fill="#F03E1E"/>
<path d="M259.434 0.0717405C189.497 2.9746 119.433 55.0712 119.433 55.0712L168.778 77.0703C206.183 16.3094 256.038 2.50028 259.434 0.0717405Z" fill="#F36717"/>
<path d="M278.423 324.976L210.654 319.157C210.654 319.157 240.328 348.047 261.132 356.977L278.423 324.976Z" fill="#F03E1E"/>
<path d="M217.137 284.278L210.654 319.182L278.423 325C240.818 311.57 217.137 284.278 217.137 284.278Z" fill="#F36717"/>
<path d="M208.569 284.171L182.775 283.76H182.766C188.359 297.392 210.681 319.211 210.681 319.211L217.167 284.307L208.569 284.171Z" fill="#C6361F"/>
<path d="M178.11 232.097C177.702 230.655 177.449 229.292 177.421 228.056C177.421 228.056 167.979 254.412 182.746 283.789L208.54 284.2L208.543 284.197L217.137 284.336C217.137 284.336 183.321 250.605 178.11 232.097Z" fill="#F36717"/>
<path d="M123.422 192.339L106.488 230.032L162.035 257.078L123.422 192.339Z" fill="#F36717"/>
<path d="M109.487 96.5625L107.688 95.8384Z" fill="#F79059"/>
<path d="M107.688 95.9531H108.137L107.697 95.776C107.694 95.833 107.691 95.893 107.688 95.9531Z" fill="#F79059"/>
<path d="M161.86 117.661C161.8 117.648 161.72 117.626 161.654 117.61C161.515 117.576 161.366 117.538 161.192 117.487C161.094 117.459 160.981 117.424 160.873 117.389C160.699 117.335 160.519 117.278 160.32 117.212C160.19 117.168 160.048 117.12 159.905 117.07C159.697 116.997 159.479 116.921 159.251 116.836C159.09 116.779 158.925 116.719 158.751 116.655C158.511 116.564 158.258 116.469 157.999 116.371C157.815 116.301 157.635 116.232 157.442 116.159C157.145 116.042 156.832 115.919 156.516 115.795C156.335 115.723 156.165 115.656 155.981 115.583C155.57 115.419 155.14 115.245 154.7 115.068C154.59 115.024 154.489 114.983 154.375 114.935C153.821 114.711 153.249 114.474 152.658 114.23C152.414 114.129 152.161 114.021 151.911 113.917C151.554 113.768 151.194 113.62 150.824 113.462C150.507 113.329 150.182 113.193 149.859 113.054C149.537 112.918 149.214 112.782 148.882 112.639C148.556 112.5 148.224 112.361 147.892 112.216C147.535 112.064 147.178 111.912 146.814 111.757C146.476 111.609 146.134 111.463 145.786 111.311C145.445 111.166 145.1 111.017 144.756 110.866C144.386 110.704 144.016 110.546 143.642 110.382C143.314 110.239 142.982 110.097 142.653 109.952C142.251 109.778 141.853 109.601 141.445 109.424C141.138 109.291 140.825 109.152 140.515 109.016C140.091 108.829 139.668 108.643 139.238 108.456L109.469 96.4935L108.112 95.9465H107.66C107.265 103.156 107.55 111.21 108.938 120.02C112.704 150.073 130.383 178.953 130.383 178.953L162.302 117.724C162.195 117.724 162.043 117.699 161.86 117.661Z" fill="#F03E1E"/>
<path d="M119.441 54.9875C119.441 54.9875 109.158 69.9414 107.688 95.8047L109.749 95.1691L168.787 76.9867L119.441 54.9875Z" fill="#F79059"/>
<path d="M168.784 76.9647L109.746 95.1471L107.688 95.7827L109.484 96.5037L139.255 108.466C139.682 108.656 140.106 108.842 140.533 109.029C140.843 109.165 141.153 109.301 141.463 109.437C141.867 109.614 142.269 109.788 142.667 109.965C142.999 110.107 143.331 110.253 143.657 110.395C144.03 110.556 144.4 110.718 144.77 110.879C145.118 111.027 145.463 111.176 145.804 111.325C146.149 111.473 146.49 111.622 146.832 111.767C147.196 111.922 147.553 112.077 147.907 112.229C148.242 112.371 148.574 112.514 148.9 112.653C149.229 112.792 149.551 112.931 149.874 113.067C150.2 113.203 150.525 113.342 150.841 113.475C151.211 113.63 151.569 113.779 151.929 113.93C152.176 114.035 152.432 114.142 152.672 114.24C153.264 114.487 153.839 114.724 154.393 114.949C154.503 114.993 154.608 115.034 154.718 115.081C155.158 115.258 155.588 115.432 155.999 115.597C156.182 115.669 156.353 115.736 156.53 115.805C156.85 115.932 157.163 116.055 157.46 116.169C157.653 116.245 157.833 116.311 158.016 116.384C158.276 116.482 158.529 116.577 158.769 116.666C158.94 116.729 159.104 116.789 159.265 116.849C159.496 116.931 159.715 117.01 159.923 117.083C160.066 117.13 160.205 117.181 160.337 117.222C160.537 117.292 160.717 117.349 160.891 117.402C160.998 117.434 161.112 117.472 161.21 117.5C161.384 117.551 161.53 117.589 161.672 117.621C161.738 117.64 161.817 117.662 161.877 117.674C162.061 117.712 162.213 117.734 162.32 117.734C161.15 109.345 168.784 76.9647 168.784 76.9647Z" fill="#F36717"/>
<path d="M525.535 228.06C525.507 229.297 525.254 230.656 524.846 232.102C525.089 230.783 525.32 229.442 525.535 228.06Z" fill="#F36717"/>
<path d="M396.485 441.039L382.512 357.039C385.879 357.821 445.685 416.665 445.689 416.665L396.485 441.039Z" fill="#F03E1E"/>
<path d="M441.85 357.021L450.302 372.664L382.512 356.939L424.512 324.938L441.805 356.939C441.679 356.97 441.726 356.999 441.85 357.021Z" fill="#C6361F"/>
<path d="M450.32 372.791L441.867 357.148C444.925 357.726 520.886 355.469 520.886 355.469L507.529 386.062L450.32 372.791Z" fill="#F79059"/>
<path d="M441.872 357.038C441.749 357.016 441.701 356.987 441.828 356.956C495.391 342.859 535.494 283.685 535.494 283.685L520.891 355.359C520.891 355.359 444.933 357.617 441.872 357.038Z" fill="#C6361F"/>
<path d="M573.191 390.041C573.191 390.041 541.102 409.473 527.046 415.914L520.924 355.33L573.191 390.041Z" fill="#F03E1E"/>
<path d="M520.92 355.318L527.041 415.902C527.041 415.902 471.501 443.486 439.563 445.914L481.32 398.912L507.563 385.912L520.92 355.318Z" fill="#C6361F"/>
<path d="M632.567 343.064C632.567 343.064 594.805 377.461 573.191 390.18L520.924 355.469L632.567 343.064Z" fill="#F36717"/>
<path d="M645.548 319.94L599.238 332.766L675.547 202.94C686.821 286.845 645.548 319.94 645.548 319.94Z" fill="#F03E1E"/>
<path d="M675.548 202.94L599.238 332.766V267.853C630.199 257.335 675.548 202.94 675.548 202.94Z" fill="#C6361F"/>
<path d="M599.208 267.853V332.766L579.518 273.94L599.208 267.853Z" fill="#F36717"/>
<path d="M563.486 296.226L520.924 355.305L540.956 256.996L563.486 296.226Z" fill="#F36717"/>
<path d="M596.477 230.03L652.024 202.984C652.024 202.984 612.816 260.887 579.544 273.984L540.931 257.079L596.477 230.03Z" fill="#F79059"/>
<path d="M599.257 332.872L520.924 355.453L556.334 306.297L599.257 332.872Z" fill="#F79059"/>
<path d="M563.461 296.367L540.931 257.137L579.544 274.042L563.461 296.367Z" fill="#F03E1E"/>
<path d="M445.689 416.68C445.689 416.68 385.879 357.835 382.512 357.054L507.512 386.054L481.269 399.054L445.689 416.68Z" fill="#F36717"/>
<path d="M597.303 227.481L638.383 100.587L639.651 96.6755C647.149 105.972 654.823 119.19 659.921 137.49C665.647 156.371 665.565 173.076 665.565 173.076C662.836 186.98 652.047 203.079 652.047 203.079L596.497 230.125L597.303 227.481Z" fill="#F36717"/>
<path d="M603.447 146.602L603.438 146.615C623.148 111.597 616.558 76.9779 616.558 76.9779C616.558 76.9779 627.84 81.952 639.61 96.5327C639.616 96.539 639.645 96.5738 639.645 96.5738L638.377 100.489L597.297 227.383L603.447 146.602Z" fill="#F79059"/>
<path d="M597.249 227.481L596.443 230.125L579.51 192.432L572.55 179.078L603.39 146.714L603.4 146.701L597.249 227.481Z" fill="#C6361F"/>
<path d="M579.511 192.352L523.513 181.995C535.45 162.232 540.629 117.766 540.629 117.766L572.551 178.998L579.511 192.352Z" fill="#F79059"/>
<path d="M579.511 192.339L540.898 257.078C544.889 215.078 523.513 181.983 523.513 181.983L579.511 192.339Z" fill="#F03E1E"/>
<path d="M443.542 0.0717405C513.479 2.9746 583.543 55.0712 583.543 55.0712L534.198 77.0703C496.793 16.3094 446.938 2.50028 443.542 0.0717405Z" fill="#F36717"/>
<path d="M424.524 324.976L492.293 319.157C492.293 319.157 462.619 348.047 441.815 356.977L424.524 324.976Z" fill="#F03E1E"/>
<path d="M485.81 284.278L492.293 319.182L424.524 325C462.129 311.57 485.81 284.278 485.81 284.278Z" fill="#F36717"/>
<path d="M494.419 284.171L520.213 283.76H520.222C514.629 297.392 492.307 319.211 492.307 319.211L485.821 284.307L494.419 284.171Z" fill="#C6361F"/>
<path d="M524.849 232.097C525.257 230.652 525.51 229.292 525.538 228.056C525.538 228.056 534.98 254.412 520.213 283.789L494.419 284.2L494.416 284.197L485.821 284.336C485.821 284.336 519.637 250.605 524.849 232.097" fill="#F36717"/>
<path d="M579.544 192.339L596.477 230.032L540.931 257.078L579.544 192.339Z" fill="#F36717"/>
<path d="M593.509 96.5625L595.308 95.8384Z" fill="#F79059"/>
<path d="M595.309 95.9531H594.86L595.3 95.776C595.303 95.833 595.306 95.893 595.309 95.9531Z" fill="#F79059"/>
<path d="M541.126 117.661C541.186 117.648 541.265 117.626 541.332 117.61C541.471 117.576 541.62 117.538 541.794 117.487C541.892 117.459 542.005 117.424 542.113 117.389C542.287 117.335 542.467 117.278 542.666 117.212C542.796 117.168 542.938 117.12 543.081 117.07C543.289 116.997 543.507 116.921 543.735 116.836C543.896 116.779 544.061 116.719 544.235 116.655C544.475 116.564 544.728 116.469 544.987 116.371C545.171 116.301 545.351 116.232 545.544 116.159C545.841 116.042 546.154 115.919 546.47 115.795C546.651 115.723 546.821 115.656 547.005 115.583C547.416 115.419 547.846 115.245 548.285 115.068C548.396 115.024 548.497 114.983 548.611 114.935C549.165 114.711 549.737 114.474 550.328 114.23C550.572 114.129 550.825 114.021 551.074 113.917C551.432 113.768 551.792 113.62 552.162 113.462C552.478 113.329 552.804 113.193 553.127 113.054C553.449 112.918 553.772 112.782 554.104 112.639C554.43 112.5 554.762 112.361 555.094 112.216C555.451 112.064 555.808 111.912 556.172 111.757C556.51 111.609 556.852 111.463 557.2 111.311C557.541 111.166 557.886 111.017 558.23 110.866C558.6 110.704 558.97 110.546 559.344 110.382C559.672 110.239 560.004 110.097 560.333 109.952C560.735 109.778 561.133 109.601 561.541 109.424C561.848 109.291 562.161 109.152 562.471 109.016C562.895 108.829 563.318 108.643 563.748 108.456L593.517 96.4935L594.874 95.9465H595.326C595.721 103.156 595.436 111.21 594.048 120.02C590.282 150.073 572.602 178.953 572.602 178.953L540.684 117.724C540.791 117.724 540.943 117.699 541.126 117.661Z" fill="#F03E1E"/>
<path d="M583.5 54.9875C583.5 54.9875 593.783 69.9414 595.254 95.8047L593.192 95.1691L534.154 76.9867L583.5 54.9875Z" fill="#F79059"/>
<path d="M534.154 76.9647L593.192 95.1471L595.25 95.7827L593.454 96.5037L563.683 108.466C563.256 108.656 562.832 108.842 562.405 109.029C562.095 109.165 561.785 109.301 561.475 109.437C561.071 109.614 560.669 109.788 560.267 109.965C559.939 110.107 559.607 110.253 559.281 110.395C558.908 110.556 558.538 110.718 558.168 110.879C557.82 111.027 557.475 111.176 557.134 111.325C556.789 111.473 556.448 111.622 556.106 111.767C555.742 111.922 555.385 112.077 555.031 112.229C554.696 112.371 554.364 112.514 554.038 112.653C553.709 112.792 553.387 112.931 553.064 113.067C552.738 113.203 552.413 113.342 552.096 113.475C551.726 113.63 551.369 113.779 551.009 113.93C550.762 114.035 550.506 114.142 550.265 114.24C549.674 114.487 549.099 114.724 548.545 114.949C548.435 114.993 548.33 115.034 548.22 115.081C547.78 115.258 547.35 115.432 546.939 115.597C546.756 115.669 546.585 115.736 546.408 115.805C546.088 115.932 545.775 116.055 545.478 116.169C545.285 116.245 545.105 116.311 544.921 116.384C544.662 116.482 544.409 116.577 544.169 116.666C543.998 116.729 543.834 116.789 543.672 116.849C543.442 116.931 543.223 117.01 543.015 117.083C542.872 117.13 542.733 117.181 542.6 117.222C542.401 117.292 542.221 117.349 542.047 117.402C541.94 117.434 541.826 117.472 541.728 117.5C541.554 117.551 541.408 117.589 541.266 117.621C541.2 117.64 541.121 117.662 541.06 117.674C540.877 117.712 540.725 117.734 540.618 117.734C541.788 109.345 534.154 76.9647 534.154 76.9647Z" fill="#F36717"/>
<path d="M563.462 296.265L579.545 273.94L599.236 332.766L556.312 306.191L563.462 296.265Z" fill="#C6361F"/>
<path d="M139.521 296.265L123.438 273.94L103.747 332.766L146.67 306.191L139.521 296.265Z" fill="#C6361F"/>
<path d="M771.6 325V183H832.2C839 183 845.2 184.4 850.8 187.2C856.533 190 861.4 193.667 865.4 198.2C869.533 202.733 872.733 207.867 875 213.6C877.4 219.333 878.6 225.133 878.6 231C878.6 237.267 877.467 243.267 875.2 249C873.067 254.733 870 259.867 866 264.4C862.133 268.933 857.4 272.533 851.8 275.2C846.2 277.867 840 279.2 833.2 279.2H804.4V325H771.6ZM804.4 250.6H831.2C835.067 250.6 838.4 248.933 841.2 245.6C844 242.267 845.4 237.4 845.4 231C845.4 227.667 844.933 224.8 844 222.4C843.2 220 842.067 218 840.6 216.4C839.133 214.8 837.467 213.667 835.6 213C833.733 212.2 831.867 211.8 830 211.8H804.4V250.6ZM1088.41 183V325H1055.61V266.8H999.009V325H966.209V183H999.009V238H1055.61V183H1088.41ZM1247.82 326.2C1237.29 326.2 1227.69 324.133 1219.02 320C1210.36 315.867 1202.96 310.467 1196.82 303.8C1190.69 297 1185.89 289.267 1182.42 280.6C1179.09 271.933 1177.42 263 1177.42 253.8C1177.42 244.467 1179.16 235.467 1182.62 226.8C1186.22 218.133 1191.16 210.533 1197.42 204C1203.82 197.333 1211.36 192.067 1220.02 188.2C1228.69 184.2 1238.16 182.2 1248.42 182.2C1258.96 182.2 1268.56 184.267 1277.22 188.4C1285.89 192.533 1293.29 198 1299.42 204.8C1305.56 211.6 1310.29 219.333 1313.62 228C1316.96 236.667 1318.62 245.467 1318.62 254.4C1318.62 263.733 1316.82 272.733 1313.22 281.4C1309.76 290.067 1304.89 297.733 1298.62 304.4C1292.36 310.933 1284.89 316.2 1276.22 320.2C1267.56 324.2 1258.09 326.2 1247.82 326.2ZM1210.82 254.2C1210.82 259.667 1211.62 265 1213.22 270.2C1214.82 275.267 1217.16 279.8 1220.22 283.8C1223.42 287.8 1227.36 291 1232.02 293.4C1236.69 295.8 1242.02 297 1248.02 297C1254.29 297 1259.76 295.733 1264.42 293.2C1269.09 290.667 1272.96 287.4 1276.02 283.4C1279.09 279.267 1281.36 274.667 1282.82 269.6C1284.42 264.4 1285.22 259.133 1285.22 253.8C1285.22 248.333 1284.42 243.067 1282.82 238C1281.22 232.8 1278.82 228.267 1275.62 224.4C1272.42 220.4 1268.49 217.267 1263.82 215C1259.29 212.6 1254.02 211.4 1248.02 211.4C1241.76 211.4 1236.29 212.667 1231.62 215.2C1227.09 217.6 1223.22 220.8 1220.02 224.8C1216.96 228.8 1214.62 233.4 1213.02 238.6C1211.56 243.667 1210.82 248.867 1210.82 254.2ZM1507.38 296.2V325H1407.58V183H1505.58V211.8H1440.38V239.4H1496.38V266H1440.38V296.2H1507.38ZM1630.1 243.8V325H1597.3V183H1622.9L1689.1 266.4V183H1721.9V325H1695.5L1630.1 243.8ZM1819.06 325V183H1851.86V325H1819.06ZM1969.62 183L2000.62 232L2031.62 183H2067.02L2017.82 255L2065.42 325H2030.02L2000.62 278L1971.22 325H1935.62L1983.22 255L1934.02 183H1969.62Z" fill="#1E2535"/>
<path d="M858 434.666C856.667 433.199 854.733 431.666 852.2 430.066C849.667 428.332 846.667 426.732 843.2 425.266C839.867 423.799 836.133 422.599 832 421.666C828 420.732 823.867 420.266 819.6 420.266C810.133 420.266 803.133 421.999 798.6 425.466C794.2 428.932 792 433.732 792 439.866C792 443.332 792.667 446.199 794 448.466C795.467 450.599 797.667 452.532 800.6 454.266C803.533 455.866 807.2 457.332 811.6 458.666C816 459.866 821.133 461.199 827 462.666C834.2 464.399 840.667 466.332 846.4 468.466C852.267 470.599 857.2 473.199 861.2 476.266C865.2 479.332 868.267 483.132 870.4 487.666C872.667 492.066 873.8 497.466 873.8 503.866C873.8 511.066 872.4 517.266 869.6 522.466C866.933 527.666 863.2 531.932 858.4 535.266C853.733 538.466 848.267 540.866 842 542.466C835.733 543.932 829 544.666 821.8 544.666C811 544.666 800.533 543.066 790.4 539.866C780.4 536.532 771.333 531.732 763.2 525.466L773.4 506.266C775.133 507.999 777.6 509.932 780.8 512.066C784.133 514.199 787.933 516.199 792.2 518.066C796.6 519.799 801.333 521.332 806.4 522.666C811.467 523.866 816.733 524.466 822.2 524.466C831 524.466 837.8 522.932 842.6 519.866C847.4 516.799 849.8 512.266 849.8 506.266C849.8 502.666 848.867 499.666 847 497.266C845.267 494.866 842.733 492.799 839.4 491.066C836.067 489.199 832 487.532 827.2 486.066C822.4 484.599 816.933 483.066 810.8 481.466C803.733 479.599 797.533 477.666 792.2 475.666C787 473.532 782.667 470.999 779.2 468.066C775.733 465.132 773.067 461.732 771.2 457.866C769.467 453.866 768.6 449.066 768.6 443.466C768.6 436.532 769.933 430.399 772.6 425.066C775.267 419.599 778.867 415.066 783.4 411.466C788.067 407.732 793.533 404.932 799.8 403.066C806.067 401.199 812.867 400.266 820.2 400.266C829.8 400.266 838.667 401.799 846.8 404.866C854.933 407.932 862.067 411.732 868.2 416.266L858 434.666ZM1043.67 523.466V543.266H946.266V401.266H1041.87V421.066H968.666V461.466H1032.07V480.066H968.666V523.466H1043.67ZM1104.84 471.266C1104.84 462.732 1106.38 454.266 1109.44 445.866C1112.51 437.332 1116.98 429.732 1122.84 423.066C1128.84 416.266 1136.11 410.799 1144.64 406.666C1153.18 402.532 1162.84 400.466 1173.64 400.466C1186.58 400.466 1197.64 403.332 1206.84 409.066C1216.04 414.799 1222.98 422.266 1227.64 431.466L1210.04 443.266C1208.04 438.999 1205.64 435.399 1202.84 432.466C1200.04 429.532 1196.98 427.199 1193.64 425.466C1190.31 423.732 1186.84 422.532 1183.24 421.866C1179.64 421.066 1176.18 420.666 1172.84 420.666C1165.38 420.666 1158.84 422.199 1153.24 425.266C1147.64 428.199 1142.91 432.132 1139.04 437.066C1135.31 441.999 1132.44 447.532 1130.44 453.666C1128.58 459.799 1127.64 465.932 1127.64 472.066C1127.64 478.999 1128.78 485.599 1131.04 491.866C1133.31 498.132 1136.44 503.666 1140.44 508.466C1144.58 513.266 1149.44 517.132 1155.04 520.066C1160.64 522.866 1166.78 524.266 1173.44 524.266C1176.91 524.266 1180.44 523.866 1184.04 523.066C1187.78 522.132 1191.31 520.732 1194.64 518.866C1198.11 516.866 1201.24 514.399 1204.04 511.466C1206.98 508.532 1209.38 504.999 1211.24 500.866L1229.84 511.466C1227.58 516.799 1224.38 521.532 1220.24 525.666C1216.11 529.666 1211.44 533.066 1206.24 535.866C1201.04 538.666 1195.51 540.799 1189.64 542.266C1183.91 543.732 1178.24 544.466 1172.64 544.466C1162.64 544.466 1153.51 542.332 1145.24 538.066C1136.98 533.799 1129.84 528.266 1123.84 521.466C1117.84 514.532 1113.18 506.732 1109.84 498.066C1106.51 489.266 1104.84 480.332 1104.84 471.266ZM1359.76 524.066C1367.23 524.066 1373.43 522.599 1378.36 519.666C1383.3 516.732 1387.23 512.932 1390.16 508.266C1393.23 503.466 1395.36 498.066 1396.56 492.066C1397.9 485.932 1398.56 479.666 1398.56 473.266V401.266H1421.16V473.266C1421.16 482.999 1420.03 492.199 1417.76 500.866C1415.5 509.399 1411.9 516.932 1406.96 523.466C1402.03 529.866 1395.63 534.932 1387.76 538.666C1380.03 542.399 1370.7 544.266 1359.76 544.266C1348.43 544.266 1338.83 542.332 1330.96 538.466C1323.23 534.466 1316.96 529.199 1312.16 522.666C1307.36 515.999 1303.9 508.399 1301.76 499.866C1299.63 491.332 1298.56 482.466 1298.56 473.266V401.266H1320.96V473.266C1320.96 479.799 1321.56 486.132 1322.76 492.266C1324.1 498.266 1326.23 503.666 1329.16 508.466C1332.23 513.132 1336.23 516.932 1341.16 519.866C1346.23 522.666 1352.43 524.066 1359.76 524.066ZM1500.95 543.266V401.266H1562.75C1569.15 401.266 1575.02 402.599 1580.35 405.266C1585.82 407.932 1590.49 411.466 1594.35 415.866C1598.22 420.132 1601.22 425.066 1603.35 430.666C1605.62 436.132 1606.75 441.732 1606.75 447.466C1606.75 452.266 1606.09 456.866 1604.75 461.266C1603.42 465.666 1601.55 469.732 1599.15 473.466C1596.75 477.199 1593.82 480.466 1590.35 483.266C1586.89 485.932 1583.09 487.932 1578.95 489.266L1612.35 543.266H1586.95L1556.15 493.866H1523.35V543.266H1500.95ZM1523.35 474.066H1562.55C1565.75 474.066 1568.62 473.399 1571.15 472.066C1573.82 470.599 1576.09 468.666 1577.95 466.266C1579.82 463.732 1581.29 460.866 1582.35 457.666C1583.42 454.466 1583.95 451.066 1583.95 447.466C1583.95 443.866 1583.29 440.466 1581.95 437.266C1580.75 434.066 1579.09 431.266 1576.95 428.866C1574.95 426.466 1572.55 424.599 1569.75 423.266C1567.09 421.799 1564.29 421.066 1561.35 421.066H1523.35V474.066ZM1683.18 543.266V401.266H1705.58V543.266H1683.18ZM1891.87 421.066H1844.67V543.266H1822.07V421.066H1774.67V401.266H1891.87V421.066ZM1971.31 401.266L2010.51 472.466L2050.11 401.266H2074.71L2021.71 492.466V543.266H1999.31V492.066L1946.71 401.266H1971.31Z" fill="url(#paint0_linear_8868_294119)"/>
<defs>
<linearGradient id="paint0_linear_8868_294119" x1="1939.64" y1="580.833" x2="1217.07" y2="389.677" gradientUnits="userSpaceOnUse">
<stop stop-color="#FF9141"/>
<stop offset="1" stop-color="#FF6B00"/>
</linearGradient>
</defs>
</svg>
