<svg id="art" xmlns="http://www.w3.org/2000/svg" width="4.1667in" height="0.877in" viewBox="0 0 300 63.1415"><defs><style>.cls-1{fill:#d32027;}.cls-2{fill:#393939;}</style></defs><path class="cls-1" d="M40.8343,33.1934A20.4161,20.4161,0,0,0,.0022,33.195L0,39.8733H.018c-.0034.0561-.0158.1068-.0172.1618V70.97a4.9648,4.9648,0,0,0,4.9506,4.95l10.3048-.0006c-.0354-.0354-.0764-.07-.074-.1088V74.2424c-.0024.42,2.3434.7608,5.2361.7613s5.236-.3415,5.236-.7613v1.5681c0,.0391-.04.0729-.0753.1088l10.3047.0006a4.9645,4.9645,0,0,0,4.9506-4.95V40.0361c0-.056-.0132-.1067-.0169-.1628h.0169Zm-15.18,40.3845c0,.42-2.3442.76-5.236.7612-2.8927,0-5.2361-.3415-5.2361-.7612V72.0092c0,.423,2.3434.7613,5.2361.7624s5.236-.3416,5.236-.7629Zm0-2.2343c.0019.4193-2.3442.7608-5.236.7608-2.8933,0-5.2361-.3415-5.2385-.7608V69.7755c.0024.4209,2.3458.76,5.2385.7587,2.8918.0021,5.236-.3378,5.236-.7587Zm0-2.1544c0,.42-2.3442.7614-5.2356.7614-2.8931,0-5.2365-.3437-5.2365-.7614,0-8.3008-7.3749-10.9569-7.3749-17.9185A12.6115,12.6115,0,1,1,33.03,51.2685C33.03,58.2323,25.6543,60.8884,25.6543,69.1892Zm9.6122-34.1031-29.6971,0V33.195a14.8486,14.8486,0,0,1,29.6971-.0016Z" transform="translate(0 -12.7784)"/><path class="cls-1" d="M50.0772,45.5542,52.5136,41.84a18.7758,18.7758,0,0,0,10.5844,3.116c5.9512,0,7.828-1.3983,7.828-4.5937s-2.995-3.7943-7.9078-4.5535C55.8689,34.69,51.674,33.4522,51.674,27.2216c0-6.1913,3.7947-8.5086,11.5039-8.5086,5.3116,0,8.8279,1.2382,11.1433,2.7962l-2.5964,3.9546a16.6244,16.6244,0,0,0-8.5874-2.2766c-4.9526,0-6.67,1.1573-6.67,3.9144,0,2.995,2.7553,3.5549,7.75,4.3527,6.789,1.0795,11.503,2.157,11.503,8.6688,0,5.95-3.5152,9.0663-12.5023,9.0663C58.0653,49.1894,53.6312,48.0311,50.0772,45.5542Z" transform="translate(0 -12.7784)"/><path class="cls-1" d="M77.9442,37.5658c0-6.3505,1.9972-11.6632,11.1034-11.6632,9.4266,0,9.7465,6.5509,9.5866,13.62H82.4579c.2794,3.5152,1.6777,5.7124,6.67,5.7124a10.5936,10.5936,0,0,0,7.0306-2.157l2.4756,3.235c-2.5559,1.9572-5.2321,2.9151-9.5062,2.9151C79.7816,49.2285,77.9442,43.9961,77.9442,37.5658Zm4.5137-2.0766H94.2406c-.1988-3.1954-.5181-5.4724-5.3114-5.4724C84.2955,30.0168,82.8176,32.1727,82.4579,35.4892Z" transform="translate(0 -12.7784)"/><path class="cls-1" d="M101.18,37.5658c0-6.75,2.2365-11.6632,11.2635-11.6632,3.9945,0,6.71,1.3989,8.548,3.475l-3.3952,3.1964a6.5047,6.5047,0,0,0-5.1528-2.157c-5.1522,0-6.5905,2.7555-6.5905,7.2694s1.3576,7.3486,6.5905,7.3486a7.149,7.149,0,0,0,5.3926-2.2358l3.1144,2.9554a11.2408,11.2408,0,0,1-8.7063,3.4348C103.4571,49.1894,101.18,44.3557,101.18,37.5658Z" transform="translate(0 -12.7784)"/><path class="cls-1" d="M123.9805,38.8833V26.4222h4.6336V39.0038c0,3.3545.04,5.9118,5.4721,5.9118s5.4323-2.5573,5.4323-5.9916V26.4222h4.5529V38.8035c0,6.9907-1.398,10.3859-9.9852,10.3859S123.9805,45.8344,123.9805,38.8833Z" transform="translate(0 -12.7784)"/><path class="cls-1" d="M148.6607,26.7014l3.6344-.2792.4792,2.5562c.9194-1.5173,3.6339-2.7163,7.4291-2.7961v4.6735c-5.3524.04-6.87,2.5567-6.87,6.43V48.7892h-4.6727Z" transform="translate(0 -12.7784)"/><path class="cls-1" d="M161.4331,37.5658c0-6.3505,1.9971-11.6632,11.1034-11.6632,9.4269,0,9.7462,6.5509,9.5865,13.62H165.947c.2789,3.5152,1.677,5.7124,6.67,5.7124a10.5859,10.5859,0,0,0,7.0289-2.157l2.4773,3.235c-2.5566,1.9572-5.2328,2.9151-9.5062,2.9151C163.27,49.2285,161.4331,43.9961,161.4331,37.5658Zm4.5139-2.0766H177.73c-.2009-3.1954-.52-5.4724-5.3127-5.4724C167.7833,30.0168,166.3057,32.1727,165.947,35.4892Z" transform="translate(0 -12.7784)"/><path class="cls-2" d="M189.347,19.192h3.0758V48.7892H189.347Z" transform="translate(0 -12.7784)"/><path class="cls-2" d="M195.7768,37.6462c0-6.87,2.157-11.3841,9.5458-11.3841,4.792,0,7.11.9194,8.2686,2.9558V17.7947h3.0357V48.67l-2.3568.1993-.36-2.8353c-1.3978,2.1967-3.7959,3.1557-8.6671,3.1557C197.8936,49.1894,195.7768,44.5946,195.7768,37.6462Zm17.8144,0c0-6.4711-2.1179-8.5488-7.7885-8.5488-5.4719,0-6.95,3.1964-6.95,8.5488,0,5.4322,1.4781,8.747,6.95,8.747C211.3549,46.3932,213.5912,44.196,213.5912,37.6462Z" transform="translate(0 -12.7784)"/><path class="cls-2" d="M220.8151,37.726c0-6.3912,1.9171-11.5036,10.4648-11.5036,8.867,0,9.1461,6.1116,9.0669,12.5419H223.7314c.16,4.6334,1.5183,7.8287,7.669,7.8287a10.5287,10.5287,0,0,0,7.11-2.2373l1.6368,2.1173A13.2246,13.2246,0,0,1,231.4,49.2285C222.5323,49.2285,220.8151,44.1558,220.8151,37.726Zm2.9564-1.7177h13.6992c-.2-3.9149-.479-7.07-6.27-7.07C225.6484,28.9383,224.0908,31.7736,223.7715,36.0083Z" transform="translate(0 -12.7784)"/><path class="cls-2" d="M242.8929,42.639c0-6.2712,3.5147-8.149,14.6984-8.149H258.91c-.08-3.7537-.8786-5.4317-5.9508-5.4317a12.4144,12.4144,0,0,0-6.5906,1.917L244.77,28.619a16.1722,16.1722,0,0,1,8.4282-2.3966c7.43,0,8.6281,2.5964,8.6281,8.9072v8.3077c0,2.3569.1586,2.6762,2.2765,2.6762V48.75a4.2738,4.2738,0,0,1-1.198.08c-2.5567,0-3.2366-.7988-3.595-2.7565-1.3576,2.0772-3.7145,3.116-8.6672,3.116C244.45,49.1894,242.8929,46.3525,242.8929,42.639ZM258.91,38.8437V37.246H257.752c-9.5861,0-11.9429,1.0393-11.9429,5.1932,0,2.636,1.198,4.1538,5.273,4.1538C256.6323,46.593,258.91,44.196,258.91,38.8437Z" transform="translate(0 -12.7784)"/><path class="cls-2" d="M266.0946,46.7125l1.5987-2.3568a14.2834,14.2834,0,0,0,7.7484,2.1972c3.9947,0,5.8313-.7587,5.8313-3.8742,0-2.4764-1.5966-2.9569-5.8313-3.7954-5.1123-.9977-8.3077-1.8763-8.3077-6.6291,0-3.7949,2.2373-6.0318,8.3077-6.0318A15.8413,15.8413,0,0,1,283.51,28.14l-1.438,2.4763a13.707,13.707,0,0,0-6.5905-1.5982c-4.1533,0-5.3524,1.2392-5.3524,3.2361,0,2.4361,1.5988,3.0346,5.4719,3.7938,5.3523,1.0779,8.5889,1.798,8.5889,6.5112,0,5.033-2.7978,6.63-8.9083,6.63A16.4673,16.4673,0,0,1,266.0946,46.7125Z" transform="translate(0 -12.7784)"/><path class="cls-2" d="M106.3833,57.91l1.2446-.0825.1451,1.3683c.6219-1.0992,1.9283-1.6374,4.5411-1.6374,3.8155,0,4.8935,2.3632,4.8935,5.9715,0,3.5665-1.0989,5.9308-4.9559,5.9308-2.488,0-3.69-.4775-4.2919-1.5348v4.7684h-1.5765Zm9.2282,5.6612c0-2.7994-.7471-4.52-3.6083-4.52-2.8821,0-4.0434,1.12-4.0434,4.52,0,3.38,1.12,4.4583,4.0434,4.4583C114.8232,68.03,115.6115,66.3705,115.6115,63.5712Z" transform="translate(0 -12.7784)"/><path class="cls-2" d="M119.7978,57.91l1.2448-.0825.1658,1.5337c.4353-.8908,1.8453-1.6579,3.96-1.6791v1.5761c-2.7991,0-3.7943,1.5966-3.7943,3.8361v6.1792h-1.5763Z" transform="translate(0 -12.7784)"/><path class="cls-2" d="M126.3276,63.53c0-3.94,1.5548-5.9715,5.5152-5.9715s5.5366,2.0317,5.5366,5.9715-1.5757,5.972-5.5366,5.972S126.3276,67.47,126.3276,63.53Zm9.4549.0413c0-2.9448-1.0571-4.52-3.94-4.52s-3.94,1.5755-3.94,4.52c0,2.9235,1.0581,4.5,3.94,4.5S135.7825,66.4947,135.7825,63.5712Z" transform="translate(0 -12.7784)"/><path class="cls-2" d="M139.0368,57.8275h2.157V56.77c0-2.1148.7045-3.5872,3.4-3.5872h1.2442v1.3889H144.76c-1.6178,0-2.0117.9331-2.0117,2.1983v1.0578h3.09v1.4307h-3.09V69.2735h-1.5546V59.2582h-2.157Z" transform="translate(0 -12.7784)"/><path class="cls-2" d="M146.85,63.53c0-3.3175.995-5.9715,5.4327-5.9715,4.6038,0,4.7481,3.1721,4.7069,6.5108h-8.626c.0828,2.4054.7877,4.0639,3.9807,4.0639a5.4653,5.4653,0,0,0,3.6915-1.1615l.8507,1.0992a6.87,6.87,0,0,1-4.5422,1.4311C147.7418,69.5019,146.85,66.8685,146.85,63.53Zm1.5348-.8919h7.1118c-.1031-2.0328-.2487-3.6707-3.2554-3.6707C149.3588,58.9673,148.55,60.44,148.385,62.638Z" transform="translate(0 -12.7784)"/><path class="cls-2" d="M158.6039,68.195l.83-1.2234a7.4159,7.4159,0,0,0,4.0231,1.1409c2.0731,0,3.0269-.3944,3.0269-2.0122,0-1.2846-.8295-1.5342-3.0269-1.9693-2.6546-.5181-4.3138-.9744-4.3138-3.4417,0-1.9709,1.1615-3.1309,4.3138-3.1309a8.2263,8.2263,0,0,1,4.1879.9945l-.7462,1.2857a7.1124,7.1124,0,0,0-3.4212-.8289c-2.157,0-2.779.6423-2.779,1.68,0,1.2641.8293,1.5749,2.8409,1.9693,2.7787.5594,4.4581.9331,4.4581,3.38,0,2.6127-1.4515,3.4423-4.6239,3.4423A8.545,8.545,0,0,1,158.6039,68.195Z" transform="translate(0 -12.7784)"/><path class="cls-2" d="M169.4268,68.195l.83-1.2234a7.41,7.41,0,0,0,4.0222,1.1409c2.073,0,3.0267-.3944,3.0267-2.0122,0-1.2846-.829-1.5342-3.0267-1.9693-2.654-.5181-4.3127-.9744-4.3127-3.4417,0-1.9709,1.1607-3.1309,4.3127-3.1309a8.224,8.224,0,0,1,4.1877.9945l-.7454,1.2857a7.1142,7.1142,0,0,0-3.4222-.8289c-2.156,0-2.7777.6423-2.7777,1.68,0,1.2641.83,1.5749,2.84,1.9693,2.7793.5594,4.4584.9331,4.4584,3.38,0,2.6127-1.4507,3.4423-4.6244,3.4423A8.5426,8.5426,0,0,1,169.4268,68.195Z" transform="translate(0 -12.7784)"/><path class="cls-2" d="M181.3068,54.0744h1.5754v2.2395h-1.5754Zm0,3.7531h1.5554v11.446h-1.5554Z" transform="translate(0 -12.7784)"/><path class="cls-2" d="M185.5785,63.53c0-3.94,1.5554-5.9715,5.5152-5.9715S196.63,59.59,196.63,63.53s-1.5755,5.972-5.5364,5.972S185.5785,67.47,185.5785,63.53Zm9.455.0413c0-2.9448-1.0574-4.52-3.94-4.52s-3.94,1.5755-3.94,4.52c0,2.9235,1.0573,4.5,3.94,4.5S195.0335,66.4947,195.0335,63.5712Z" transform="translate(0 -12.7784)"/><path class="cls-2" d="M199.22,57.91l1.2445-.0825.146,1.2028c.498-.7883,1.5966-1.4719,4.2506-1.4719,3.6912,0,4.1258,1.907,4.1258,4.727v6.9881H207.411V62.555c0-2.0317-.1872-3.4417-3.0062-3.4417-3.0483,0-3.6076,1.576-3.6076,3.7325v6.4277H199.22Z" transform="translate(0 -12.7784)"/><path class="cls-2" d="M211.412,66.08c0-3.2551,1.8239-4.2294,7.631-4.2294h.683c-.0412-1.95-.4546-2.82-3.0885-2.82a6.4418,6.4418,0,0,0-3.4216.9949l-.829-1.2228a8.3837,8.3837,0,0,1,4.3743-1.244c3.8562,0,4.48,1.3471,4.48,4.6233v4.313c0,1.2234.0825,1.39,1.1811,1.39v1.3683a2.2612,2.2612,0,0,1-.6228.0407c-1.3259,0-1.6791-.415-1.8662-1.4306-.7042,1.0785-1.9276,1.6178-4.4991,1.6178C212.22,69.4808,211.412,68.0083,211.412,66.08Zm8.314-1.97v-.83h-.6005c-4.976,0-6.2.5393-6.2,2.6969,0,1.3682.6217,2.1559,2.7375,2.1559C218.545,68.1331,219.726,66.89,219.726,64.11Z" transform="translate(0 -12.7784)"/><path class="cls-2" d="M225.034,66.536V53.1825h1.5543v13.188c0,1.12.1459,1.5141,1.3281,1.5141h.498v1.3683c-.167.0206-.56.0407-.996.0407C225.5521,69.2936,225.034,68.4852,225.034,66.536Z" transform="translate(0 -12.7784)"/><path class="cls-2" d="M231.0874,66.536V53.1825h1.5564v13.188c0,1.12.1449,1.5141,1.327,1.5141h.497v1.3683c-.1649.0206-.56.0407-.996.0407C231.6066,69.2936,231.0874,68.4852,231.0874,66.536Z" transform="translate(0 -12.7784)"/><path class="cls-2" d="M236.4567,72.7155V71.43h.8925c1.0562,0,1.4718-.29,1.7826-1.1818l.4145-1.0574-4.4779-11.3635h1.659l3.6489,9.5179,3.6078-9.5179h1.6178l-4.9358,12.5864a2.9857,2.9857,0,0,1-3.2144,2.3211C237.2857,72.735,236.6639,72.735,236.4567,72.7155Z" transform="translate(0 -12.7784)"/><path class="cls-1" d="M248.7221,63.2248c0-3.2757,1.0786-6.1158,6.0968-6.1158,5.1631,0,5.3291,3.4413,5.2255,7.3614h-8.17c.1872,1.41.8713,2.2385,2.9659,2.2385a5.6616,5.6616,0,0,0,3.69-1.0791l1.6378,2.1158a8.01,8.01,0,0,1-5.3281,1.5966C249.76,69.3422,248.7221,66.564,248.7221,63.2248Zm3.152-1.0769h5.2044c-.0825-1.3487-.3521-2.3235-2.3632-2.3235S252.04,60.7168,251.8741,62.1479Z" transform="translate(0 -12.7784)"/><path class="cls-1" d="M260.5773,57.3776h3.5041l2.9648,7.962,2.9659-7.962h3.2969L268.6428,69.24h-3.4Z" transform="translate(0 -12.7784)"/><path class="cls-1" d="M274.6963,53.3348h3.2767v2.9643h-3.2767Zm.0211,4.0428h3.2345V69.1138h-3.2345Z" transform="translate(0 -12.7784)"/><path class="cls-1" d="M300,59.864a27.74,27.74,0,0,0-5.11,6.3685c-.313.5689-.1618-2.368.0782-3.1927-.847-.1369-3.5644-1.2662-2.9151-1.3043A27.6651,27.6651,0,0,0,300,59.864Z" transform="translate(0 -12.7784)"/><path class="cls-1" d="M286.489,70.1432a2.4014,2.4014,0,0,1-2.3864-2.3653c-.0265-.2332-.0614-.6878-.0614-.6878-.01-.1449-.0137-14.0667-.0137-14.0667h-3.2356l.0022,14.4473c0,2.9157.7739,5.4245,5.5807,5.4245,5.3144-.277,3.6839-6.5976,8.0962-9.4726C290.0587,63.4226,289.3978,70.1305,286.489,70.1432Z" transform="translate(0 -12.7784)"/><path class="cls-2" d="M293.4116,56.1525a3.2847,3.2847,0,1,1-3.2739-3.1958A3.2114,3.2114,0,0,1,293.4116,56.1525Zm-5.7485,0a2.4759,2.4759,0,0,0,2.4941,2.5527,2.447,2.447,0,0,0,2.4356-2.5332,2.4667,2.4667,0,1,0-4.93-.0195Zm1.9682,1.6758h-.7407V54.6325a6.4665,6.4665,0,0,1,1.2276-.0972,1.9877,1.9877,0,0,1,1.1108.2339.886.886,0,0,1,.312.7012.8192.8192,0,0,1-.6626.7407V56.25a.9449.9449,0,0,1,.5845.78,2.4355,2.4355,0,0,0,.2339.7988h-.7989a2.7268,2.7268,0,0,1-.2534-.7793c-.0586-.3511-.2534-.5068-.6626-.5068h-.3506Zm.02-1.812h.3506c.4091,0,.74-.1367.74-.4678,0-.2925-.2144-.4873-.6816-.4873a1.7621,1.7621,0,0,0-.4092.0391Z" transform="translate(0 -12.7784)"/></svg>