<svg width="537" height="184" viewBox="0 0 537 184" xmlns="http://www.w3.org/2000/svg">
    <g fill="none" fill-rule="evenodd">
        <g fill="#FFF">
            <path d="M537 0H0v184h537V0z"/>
            <path d="M48 0H0v48h48V0zM537 0h-48v48h48V0zM537 136h-48v48h48v-48zM48 136H0v48h48v-48z"/>
        </g>
        <path d="M488 47.95H48v88h440v-88z"/>
        <path d="M73.975 48.495a4.315 4.315 0 0 1 4.2 0l36.449 20.336a2.347 2.347 0 0 0 1.67.237c.796-.184 1.452-.276 1.973-.276 3.813 0 6.933 2.465 6.933 5.54 0 3.076-3.12 5.541-6.933 5.541-.556 0-1.255-.104-2.102-.312a2.348 2.348 0 0 0-1.701.228l-52.14 29.038a.882.882 0 0 0-.448.634l-.01.14c0 .36.197.693.514.87l33.603 18.749c.71.396 1.576.396 2.285 0l12.45-6.947a.99.99 0 0 0 0-1.733l-15.094-8.423a2.91 2.91 0 0 1 0-5.099l15.353-8.566a.689.689 0 0 0 .348-.491l.009-.114c0-3.075 3.12-5.54 6.933-5.54 3.813 0 6.933 2.465 6.933 5.54 0 1.89-1.178 3.55-2.972 4.549l-.185.099c-1.088.565-2.386.893-3.776.893-.576 0-1.3-.112-2.176-.335a2.348 2.348 0 0 0-1.72.224l-9.722 5.423a.99.99 0 0 0 0 1.734l15.096 8.422a2.91 2.91 0 0 1 0 5.098l-20.519 11.45a4.315 4.315 0 0 1-4.2 0L58.62 115.091a2.348 2.348 0 0 0-1.679-.235c-.81.19-1.478.286-2.008.286-3.813 0-6.933-2.465-6.933-5.541 0-3.076 3.12-5.54 6.933-5.54.547 0 1.235.1 2.069.302a2.347 2.347 0 0 0 1.692-.23l52.216-29.084a.816.816 0 0 0 .414-.585l.01-.131c0-.382-.208-.733-.543-.92L77.217 54.68a2.347 2.347 0 0 0-2.285 0l-12.446 6.944a.99.99 0 0 0 0 1.733l15.098 8.425a2.91 2.91 0 0 1 0 5.098l-15.347 8.564a.715.715 0 0 0-.362.51l-.009.118c0 3.076-3.12 5.54-6.933 5.54-1.787 0-3.422-.54-4.655-1.433l-.162-.121C48.813 89.053 48 87.642 48 86.072c0-3.075 3.12-5.54 6.933-5.54.571 0 1.29.11 2.16.33.58.145 1.194.065 1.716-.226l9.747-5.438a.99.99 0 0 0 0-1.734L53.46 65.041a2.91 2.91 0 0 1 0-5.098zM152.34 62.35c.982 0 1.83.318 2.546.953.743.662 1.114 1.55 1.114 2.662v9.184h8.8a2.4 2.4 0 0 1 2.394 2.236l.006.165a2.4 2.4 0 0 1-2.236 2.394l-.164.006-8.8-.001v22.017h-.001l.001 1.397.001.466c.01 2.144.097 3.856.258 5.136.202 1.4.39 2.786.909 3.515.547.759 1.167 1.315 1.859 1.52.629.212 1.484.328 2.566.347l.331.003h4.152a2.802 2.802 0 0 1 .262 5.58l-.167.015-.053.002v.003h-5.75l-.411-.004c-3.668-.077-6.558-1.184-8.67-3.322-2.125-2.122-3.22-5.67-3.284-10.646l-.003-.47v-25.56l-5.6.002a2.4 2.4 0 0 1-2.394-2.236L140 77.55a2.4 2.4 0 0 1 2.236-2.395l.164-.005 5.766-.001.634-9.184c0-1.165.345-2.066 1.034-2.702.69-.609 1.525-.913 2.506-.913zm320.397 12.8c2.202 0 4.314.297 6.337.89 2.024.594 3.809 1.425 5.356 2.494 1.13.832 1.949 1.559 2.454 2.182.506.624.759 1.262.759 1.915 0 .416-.149.787-.446 1.114-.298.326-.655.49-1.071.49-.476 0-1.25-.446-2.321-1.337a24.963 24.963 0 0 0-4.865-2.939c-1.695-.772-3.823-1.158-6.381-1.158-3.333 0-6.025.787-8.078 2.36-2.053 1.574-3.08 3.638-3.08 6.19 0 1.545.328 2.806.982 3.786.655.98 1.77 1.826 3.348 2.538 1.576.713 3.823 1.396 6.738 2.049 4.106 1.01 7.26 2.034 9.462 3.073 2.201 1.039 3.763 2.286 4.686 3.74.922 1.455 1.383 3.31 1.383 5.567 0 3.563-1.473 6.428-4.418 8.595-2.946 2.167-6.858 3.25-11.737 3.25-2.321 0-4.642-.34-6.962-1.023-2.321-.683-4.404-1.618-6.248-2.806-1.19-.772-1.994-1.41-2.41-1.915a2.651 2.651 0 0 1-.625-1.737c0-.415.149-.786.446-1.113.298-.327.655-.49 1.071-.49.298 0 .7.163 1.205.49.506.327.848.55 1.027.668a28.018 28.018 0 0 0 5.4 3.073c1.874.801 4.24 1.202 7.096 1.202 3.867 0 6.843-.712 8.925-2.137 2.083-1.426 3.124-3.444 3.124-6.057 0-1.544-.372-2.82-1.115-3.83-.744-1.01-1.964-1.885-3.66-2.627-1.696-.742-4.12-1.47-7.274-2.182-5.237-1.188-8.985-2.702-11.247-4.543-2.26-1.84-3.391-4.275-3.391-7.303 0-3.681 1.443-6.68 4.329-8.996 2.885-2.315 6.62-3.473 11.201-3.473zm-279.16 0c.996 0 1.775.358 2.335 1.075.592.717.888 1.553.888 2.509 0 .896-.265 1.672-.794 2.329-.53.627-1.293.94-2.29.94-4.205 0-7.076 1.046-9.412 3.136-2.258 2.048-3.458 4.77-3.504 8.164v22.47c0 1.285-.413 2.31-1.238 3.075a4.03 4.03 0 0 1-2.828 1.102c-1.09 0-2.019-.352-2.785-1.056-.736-.706-1.119-1.695-1.147-2.968l-.002-.154v-36.49c0-1.286.398-2.296 1.193-3.03.825-.735 1.783-1.102 2.873-1.102 1.061 0 1.975.367 2.74 1.102.764.705 1.162 1.664 1.192 2.876l.002.153v5.635c.779-2.778 2.336-5.092 4.672-6.944 2.368-1.881 4.802-2.822 8.104-2.822zm124.09-19.2c1.06 0 1.974.354 2.74 1.062.742.661 1.138 1.554 1.188 2.677l.005.245v34.985l20.112-18.14c.65-.553 1.344-.83 2.082-.83.945 0 1.772.364 2.48 1.091.74.727 1.108 1.54 1.108 2.442 0 .746-.297 1.431-.893 2.055l-.17.169-16.08 14.172 17.586 18.228c.65.669.975 1.425.975 2.268 0 .93-.384 1.759-1.152 2.486-.738.726-1.595 1.09-2.57 1.09-.959 0-1.792-.351-2.497-1.053l-.16-.168L321.6 96.925v18.997c0 1.24-.413 2.228-1.238 2.965-.795.709-1.738 1.063-2.828 1.063-1.09 0-2.019-.34-2.785-1.018-.715-.661-1.096-1.58-1.144-2.755l-.005-.255V59.934c0-1.24.398-2.214 1.193-2.922a4.277 4.277 0 0 1 2.873-1.062zm-74.002 19.2c4.168 0 8.042 1.074 10.93 3.024 2.291 1.547 4.152 3.93 4.904 6.279.431 1.348.497 1.847.5 3.806.003 1.219-.03 2.04-.097 2.422-.676 3.85-2.285 6.517-5.08 8.416-2.248 1.528-5.07 2.422-8.763 2.776-1.859.177-5.259.16-7.461-.037-1.87-.168-4.164-.464-5.143-.662-.82-.167-3.626-.643-3.65-.62-.01.01-.143.864-.296 1.897-.245 1.649-.28 2.06-.284 3.377v.646c.006.794.043 1.043.172 1.545.51 1.987 1.637 3.316 3.68 4.343 2.009 1.01 4.115 1.448 7.298 1.515 1.41.03 2.131.01 3.013-.085 2.137-.23 3.111-.483 5.95-1.545.708-.264 1.43-.504 1.604-.534.375-.064 1.074.068 1.482.278.735.38 1.353 1.392 1.35 2.212-.005.957-.322 1.536-1.254 2.29-2.23 1.803-5.075 2.908-8.472 3.291-1.21.137-3.976.157-5.312.039-3.762-.332-6.374-.986-8.76-2.194-1.863-.942-3.284-2.111-4.345-3.574-.209-.288-.393-.539-.463-.634l-.03-.04c-.01-.01-.183.197-.385.462-.892 1.17-2.257 2.428-3.591 3.31-1.925 1.272-4.69 2.243-7.487 2.63-.834.114-3.601.21-4.311.147-4.902-.43-8.648-1.933-11.372-4.563-2.772-2.677-3.962-6.167-3.492-10.246.54-4.694 2.734-8.009 6.582-9.943 2.965-1.49 5.923-2.057 10.74-2.058 3.423-.002 6.29.283 10.665 1.057 1.082.191 2.018.348 2.081.348.092 0 .164-.35.363-1.749.359-2.531.423-3.405.325-4.419-.114-1.18-.262-1.742-.702-2.657-1.135-2.36-3.83-3.804-8.156-4.371-1.237-.162-4.093-.185-5.332-.043-2.077.239-3.236.543-5.82 1.528-1.512.575-1.519.577-2.122.541-1.037-.062-1.745-.539-2.199-1.482-.187-.388-.22-.549-.22-1.072 0-.786.202-1.203.903-1.87 1.571-1.494 4.216-2.767 6.886-3.314 1.71-.35 2.551-.423 4.803-.42 2.33.006 3.82.138 5.892.53 3.444.65 6.06 1.798 8.032 3.523.585.512 1.468 1.52 1.846 2.108.115.18.234.327.264.327s.221-.216.425-.48c2.987-3.869 8.016-6.058 13.91-6.055zm142.692 0c9.773 0 14.72 5.184 14.84 15.551l.003.392v26.541l-.006.212c-.032.552-.193.986-.483 1.302-.326.356-.785.535-1.377.535-.593 0-1.067-.193-1.423-.58-.316-.342-.491-.768-.526-1.275l-.007-.194V111.4l-.2.406c-1.293 2.535-3.108 4.508-5.444 5.918-2.459 1.485-5.259 2.227-8.399 2.227-2.726 0-5.214-.564-7.466-1.692-2.252-1.129-4.044-2.658-5.377-4.587-1.333-1.93-2.03-4.083-2.089-6.458-.06-3.265.74-5.789 2.4-7.57 1.659-1.781 4.444-3.058 8.355-3.83 3.78-.746 9.028-1.132 15.743-1.157h2.477v-3.742l-.003-.447c-.058-3.986-.902-6.91-2.53-8.77-1.689-1.93-4.34-2.896-7.955-2.896-2.844 0-5.377.372-7.6 1.114-2.221.742-3.984 1.588-5.287 2.538-.237.178-.726.52-1.467 1.024-.74.505-1.348.757-1.822.757-.415 0-.785-.163-1.111-.49a1.636 1.636 0 0 1-.489-1.202c0-1.128 1.037-2.315 3.11-3.562 2.075-1.247 4.341-2.197 6.8-2.85a28.467 28.467 0 0 1 7.333-.98zm-95.438-19.2-.001.003.053.002a2.8 2.8 0 0 1-.095 5.594h-4.152c-1.24 0-2.205.118-2.897.35-.692.205-1.312.762-1.86 1.52-.518.73-.706 2.115-.908 3.515-.161 1.28-.247 2.992-.258 5.136l-.001.466v2.614h7.2a2.4 2.4 0 0 1 0 4.8h-7.2v35.972c0 1.156-.36 2.095-1.078 2.815l-.16.15c-.795.709-1.738 1.063-2.828 1.063-1.09 0-2.019-.34-2.785-1.018-.715-.661-1.096-1.58-1.144-2.755l-.005-.255V79.95h-6.4a2.4 2.4 0 0 1 0-4.8h6.4v-4.758c0-5.223 1.095-8.928 3.286-11.116 2.113-2.138 5.003-3.246 8.67-3.322l.412-.004h5.75zm67.681 0c.514 0 .943.194 1.286.582.304.344.474.772.508 1.281l.006.196v59.882l-.006.195c-.034.51-.204.937-.508 1.282a1.645 1.645 0 0 1-1.286.582c-.571 0-1.014-.18-1.329-.537-.279-.319-.434-.755-.465-1.309l-.006-.213V58.009l.006-.214c.03-.554.186-.99.465-1.308.315-.358.758-.537 1.329-.537zm-56.934 19.2c1.061 0 1.975.367 2.74 1.102.743.685 1.14 1.61 1.189 2.776l.005.253v36.491c0 1.286-.413 2.311-1.238 3.076a4.03 4.03 0 0 1-2.828 1.102c-1.09 0-2.019-.352-2.785-1.056-.715-.686-1.096-1.638-1.144-2.856l-.005-.266v-36.49c0-1.286.398-2.296 1.193-3.03.825-.735 1.783-1.102 2.873-1.102zm109.418-19.2c.598 0 1.062.178 1.39.535.293.318.456.753.488 1.305l.006.213v26.332l.184-.402c1.312-2.78 3.21-4.938 5.693-6.471 2.602-1.607 5.727-2.41 9.376-2.41 3.828 0 7.207.922 10.138 2.767 2.93 1.844 5.204 4.433 6.819 7.765 1.615 3.333 2.422 7.23 2.422 11.694 0 4.522-.807 8.494-2.422 11.916-1.615 3.422-3.888 6.07-6.82 7.944-2.93 1.875-6.31 2.812-10.137 2.812-3.649 0-6.774-.804-9.376-2.41-2.484-1.534-4.381-3.718-5.693-6.553l-.184-.41v7.052l-.004.182c-.054 1.247-.68 1.871-1.88 1.871-.598 0-1.062-.179-1.39-.536-.293-.317-.455-.752-.488-1.304l-.006-.213V58.003l.004-.183c.054-1.247.681-1.87 1.88-1.87zm-13.484 42h-2.336c-5.93.017-10.474.268-13.632.753-3.271.503-5.561 1.36-6.87 2.572-1.308 1.212-1.962 3-1.962 5.364 0 2.72 1.011 4.951 3.033 6.695 2.022 1.744 4.58 2.616 7.672 2.616 2.676 0 5.085-.636 7.226-1.907 2.14-1.27 3.821-3.03 5.04-5.275 1.148-2.115 1.755-4.49 1.823-7.128l.006-.498V97.95zm30.31-19.6c-4.828 0-8.553 1.637-11.176 4.912-2.623 3.275-3.934 7.89-3.934 13.843 0 6.014 1.311 10.658 3.934 13.933 2.623 3.274 6.378 4.912 11.266 4.912 4.769 0 8.494-1.667 11.176-5.002 2.683-3.334 4.024-8.008 4.024-14.021 0-5.895-1.341-10.465-4.024-13.71-2.682-3.245-6.437-4.867-11.265-4.867zM212.462 98.98c-2.978.17-4.192.437-5.98 1.312-.917.448-1.549.934-2.05 1.575-.717.92-1.15 1.834-1.452 3.066-.22.896-.242 3.243-.038 3.999.343 1.273.751 1.994 1.668 2.949 1.256 1.307 2.912 2.179 4.965 2.615 1.05.223 1.02.22 2.777.193 1.276-.02 1.753-.056 2.275-.174 2.216-.503 4.19-1.637 5.623-3.229 1.308-1.452 2.38-3.627 2.97-6.024.333-1.351.886-5.112.764-5.19-.049-.03-.341-.079-.65-.108a56.616 56.616 0 0 1-1.37-.16l-.392-.05a93.12 93.12 0 0 1-.193-.026c-4.556-.604-7.35-.838-8.917-.748zm27.782-18.046c-1.622.305-2.994.86-4.203 1.702-2.234 1.556-3.776 3.9-4.635 7.049-.337 1.236-.427 1.71-.728 3.842l-.277 1.966.372.042c1.122.128 3.652.444 5.122.639.924.123 2.06.253 2.521.29 1.234.1 3.37.1 4.723.005l.32-.025c1.846-.167 2.98-.462 4.375-1.137 1.16-.56 1.834-1.134 2.472-2.102.938-1.424 1.304-2.773 1.295-4.776-.007-1.428-.125-2.022-.603-3.047-1.07-2.29-3.584-3.932-6.88-4.491-.823-.14-3.031-.115-3.874.043zM301.64 55.95c1.422 0 2.571.393 3.446 1.178.875.76 1.313 1.774 1.313 3.04 0 1.242-.438 2.256-1.313 3.042-.875.76-2.037 1.14-3.487 1.14-1.45 0-2.612-.38-3.487-1.14-.875-.786-1.313-1.8-1.313-3.041 0-1.242.438-2.255 1.313-3.04.902-.786 2.078-1.18 3.528-1.18z" fill="#000" fill-rule="nonzero"/>
    </g>
</svg>
