<svg id="Layer_1" data-name="Layer 1" xmlns="http://www.w3.org/2000/svg" xmlns:xlink="http://www.w3.org/1999/xlink" viewBox="0 0 566.93 639.51"><defs><style>.cls-1{font-size:70px;fill:#49b0dc;font-family:TTHoves-Thin, TT Hoves;font-weight:200;letter-spacing:0.07em;}.cls-2{letter-spacing:0.06em;}.cls-3{letter-spacing:0.07em;}.cls-4{letter-spacing:0.05em;}.cls-5{letter-spacing:0.06em;}.cls-6{fill:url(#linear-gradient);}.cls-7{fill:url(#linear-gradient-2);}.cls-8{fill:#fff;opacity:0.2;}</style><linearGradient id="linear-gradient" x1="227.23" y1="145.34" x2="350.03" y2="262.95" gradientUnits="userSpaceOnUse"><stop offset="0" stop-color="#c7e9fa"/><stop offset="1" stop-color="#49b0dc"/></linearGradient><linearGradient id="linear-gradient-2" x1="119.53" y1="51.03" x2="459.45" y2="376.62" xlink:href="#linear-gradient"/></defs><text class="cls-1" transform="translate(109.3 510.87)">PR<tspan class="cls-2" x="100.1" y="0">O</tspan><tspan class="cls-3" x="157.15" y="0">JE</tspan><tspan class="cls-2" x="237.3" y="0">C</tspan><tspan class="cls-4" x="292.61" y="0">T</tspan><tspan x="-8.4" y="69.02">CHA</tspan><tspan class="cls-5" x="152.95" y="69.02">P</tspan><tspan x="201.25" y="69.02">TER</tspan></text><path class="cls-6" d="M336.26,174.83a.56.56,0,0,0,.78-.16.55.55,0,0,0-.16-.78c-.17-.12-4.28-2.81-6.83-3-1.47-.13-5.14,1.54-7,2.45a16.25,16.25,0,0,0-2.77-3.67,16,16,0,0,0-3.67-2.76c.91-1.88,2.59-5.55,2.46-7-.24-2.55-2.95-6.67-3.06-6.84a.56.56,0,1,0-.94.62s2.66,4.05,2.87,6.32c.09,1-1.22,4.1-2.33,6.39a3.7,3.7,0,0,0-1.09-2.48,3.56,3.56,0,0,0-5-.08,3.41,3.41,0,0,0-.94,1.82,6.29,6.29,0,0,0-2.61,1.54c-2.3,2.31-2.43,6.16-.69,9.86a10.7,10.7,0,0,0-7.53-.18L294,171.06c.2-1,1.11-8.85.35-9s-1.81,9.62-1.81,9.62l2.27,5.83c-2.17-1.25-3.89-1.92-4.4-2.36-.22-.68-2.89-10.13-3.64-9.88s2.12,10.85,2.12,10.85l2.09,1.83-4.45-1.49c-.48-.64-5.58-6.46-6.21-6s5.29,7.25,5.29,7.25l7.38,3.54c-.16.38-.3.75-.42,1.13-7.23-1.41-17.86-3.32-29.43-4.83-18.94-2.47-38.78-1.91-42.54-.4S238,190.74,243.7,192.24c11,2.89,15.58,2.27,17.07,2.1,4.51-.53,6.76-4.91,12.87-5.18,1.89-.08,11.33-1,18.68-1.79a12.8,12.8,0,0,0,2.54,5.4c-6.7-5-14.72,2.35-25.38,13-11.33,11.32-21.85,36.45-21.85,36.45s25.14-10.51,36.47-21.84c10.67-10.66,18-18.68,13-25.37a12.66,12.66,0,0,0,5.4,2.53c-.76,7.37-1.71,16.79-1.78,18.68-.27,6.11-4.65,8.37-5.19,12.89-.17,1.47-.79,6.1,2.11,17.05,1.51,5.69,13.56,26.9,15.08,23.14s2.07-23.6-.4-42.54c-1.5-11.58-3.42-22.19-4.84-29.43a7.28,7.28,0,0,0,1.13-.42l3.55,7.4s6.78,5.9,7.25,5.27-5.36-5.73-6-6.2c-.12-.35-.79-2.35-1.49-4.46l1.84,2.09s10.6,2.86,10.85,2.12-9.21-3.41-9.89-3.64c-.44-.51-1.11-2.23-2.35-4.39l5.83,2.27s9.76-1,9.61-1.82-8,.16-9,.35c-.44-.28-3.1-2-5.77-3.76a10.62,10.62,0,0,0-.19-7.52c3.71,1.74,7.56,1.6,9.87-.7a6.29,6.29,0,0,0,1.54-2.61,3.32,3.32,0,0,0,1.82-.93,3.55,3.55,0,0,0-.09-5,3.68,3.68,0,0,0-2.47-1.09c2.29-1.11,5.39-2.42,6.39-2.33C332.21,172.17,336.22,174.8,336.26,174.83Z"/><path class="cls-7" d="M284.19,305.69a97,97,0,1,1,81.75-149l70.61-44.93a180.63,180.63,0,1,0,0,193.92l-70.61-44.93A96.82,96.82,0,0,1,284.19,305.69Z"/><polygon class="cls-8" points="91.7 208.71 374.23 371.82 374.23 45.6 91.7 208.71"/></svg>