<svg id="Layer_1" data-name="Layer 1" xmlns="http://www.w3.org/2000/svg" xmlns:xlink="http://www.w3.org/1999/xlink" viewBox="0 0 566.93 639.51"><defs><style>.cls-1{fill:url(#linear-gradient);}.cls-2{fill:url(#linear-gradient-2);}.cls-3{fill:#fff;opacity:0.2;}</style><linearGradient id="linear-gradient" x1="230.19" y1="228.25" x2="407.5" y2="398.07" gradientUnits="userSpaceOnUse"><stop offset="0" stop-color="#c7e9fa"/><stop offset="1" stop-color="#49b0dc"/></linearGradient><linearGradient id="linear-gradient-2" x1="74.69" y1="92.08" x2="565.5" y2="562.19" xlink:href="#linear-gradient"/></defs><path class="cls-1" d="M387.62,270.83a.82.82,0,0,0,1.13-.23.81.81,0,0,0-.23-1.13c-.26-.16-6.19-4.05-9.87-4.4-2.12-.19-7.41,2.22-10.12,3.54a23.68,23.68,0,0,0-4-5.3,22.9,22.9,0,0,0-5.3-4c1.32-2.71,3.74-8,3.55-10.12-.34-3.68-4.25-9.62-4.41-9.87a.83.83,0,0,0-1.14-.24.82.82,0,0,0-.22,1.13c0,.05,3.84,5.85,4.14,9.12.13,1.45-1.76,5.92-3.36,9.24a5.33,5.33,0,0,0-1.57-3.58,5.14,5.14,0,0,0-7.26-.12,5,5,0,0,0-1.36,2.63,9.11,9.11,0,0,0-3.76,2.22c-3.33,3.34-3.5,8.9-1,14.24a15.43,15.43,0,0,0-10.88-.26l-5.43-8.33c.29-1.42,1.61-12.77.5-13s-2.61,13.89-2.61,13.89l3.28,8.42c-3.13-1.8-5.61-2.77-6.35-3.41-.32-1-4.17-14.62-5.26-14.27s3.07,15.67,3.07,15.67l3,2.64c-3-1-5.93-2-6.43-2.14-.69-.93-8.05-9.33-9-8.65S314.42,275,314.42,275l10.66,5.11a15.92,15.92,0,0,0-.6,1.63c-10.44-2.05-25.78-4.8-42.5-7-27.34-3.57-56-2.77-61.42-.59S245.76,293.8,254,296c15.82,4.19,22.5,3.29,24.65,3,6.51-.76,9.76-7.08,18.58-7.48,2.73-.12,16.36-1.48,27-2.59a18.32,18.32,0,0,0,3.66,7.81c-9.68-7.21-21.25,3.39-36.65,18.81-16.35,16.34-31.54,52.63-31.54,52.63S296,353,312.3,336.65c15.41-15.39,26-27,18.81-36.63a18.52,18.52,0,0,0,7.79,3.65c-1.09,10.63-2.46,24.24-2.57,27-.39,8.82-6.71,12.08-7.49,18.61-.25,2.13-1.15,8.81,3,24.62,2.19,8.22,19.58,38.83,21.77,33.42s3-34.08-.57-61.43c-2.17-16.72-4.93-32-7-42.49a12,12,0,0,0,1.64-.62l5.12,10.69s9.79,8.53,10.47,7.62-7.74-8.28-8.65-9c-.18-.51-1.14-3.4-2.15-6.44l2.65,3s15.31,4.13,15.67,3.06-13.29-4.92-14.28-5.25c-.64-.74-1.6-3.23-3.4-6.35l8.43,3.28s14.09-1.51,13.87-2.62-11.58.23-13,.51l-8.34-5.43a15.4,15.4,0,0,0-.26-10.87c5.35,2.51,10.91,2.31,14.23-1a8.83,8.83,0,0,0,2.23-3.77,4.85,4.85,0,0,0,2.64-1.34,5.12,5.12,0,0,0-.14-7.26,5.25,5.25,0,0,0-3.56-1.57c3.31-1.61,7.78-3.5,9.22-3.37C381.77,267,387.57,270.8,387.62,270.83Z"/><path class="cls-2" d="M312.43,459.78a140,140,0,1,1,118-215.15l101.95-64.88C486.12,107.14,404.93,59,312.43,59c-144,0-260.8,116.76-260.8,260.8s116.76,260.81,260.8,260.81c92.5,0,173.69-48.2,220-120.8L430.47,394.88A139.8,139.8,0,0,1,312.43,459.78Z"/><polygon class="cls-3" points="34.51 319.75 442.44 555.27 442.44 84.23 34.51 319.75"/></svg>