<svg id="Layer_1" data-name="Layer 1" xmlns="http://www.w3.org/2000/svg" xmlns:xlink="http://www.w3.org/1999/xlink" viewBox="0 0 566.93 639.51"><defs><style>.cls-1{font-size:70px;fill:#e5b038;font-family:TTHoves-Thin, TT Hoves;font-weight:200;letter-spacing:0.07em;}.cls-2{fill:url(#linear-gradient);}.cls-3{opacity:0.75;fill:url(#linear-gradient-2);}.cls-4{fill:#fff;opacity:0.2;}</style><linearGradient id="linear-gradient" x1="118.53" y1="50.99" x2="458.45" y2="376.58" gradientUnits="userSpaceOnUse"><stop offset="0" stop-color="#fcdc7c"/><stop offset="1" stop-color="#e5b038"/></linearGradient><linearGradient id="linear-gradient-2" x1="219.12" y1="211.22" x2="336.14" y2="211.22" xlink:href="#linear-gradient"/></defs><text class="cls-1" transform="translate(173.48 523.64)">GOLD</text><path class="cls-2" d="M364.94,260.7a97,97,0,1,1,0-104.06l70.61-44.93a180.63,180.63,0,1,0,0,193.92Z"/><path class="cls-3" d="M311.74,269.29c1.52-3.75,2.07-23.6-.4-42.54-1.5-11.58-3.42-22.19-4.84-29.43a8.46,8.46,0,0,0,1.13-.42l3.55,7.4s6.78,5.9,7.25,5.27-5.36-5.73-6-6.2c-.12-.35-.79-2.35-1.49-4.46l1.84,2.09s10.6,2.86,10.85,2.12-9.21-3.41-9.89-3.64c-.44-.51-1.11-2.23-2.35-4.39l5.83,2.27s9.76-1,9.61-1.82-8,.16-9,.35c-.44-.28-3.1-2-5.77-3.76a10.65,10.65,0,0,0-.19-7.53c3.71,1.74,7.56,1.61,9.86-.69a6.21,6.21,0,0,0,1.55-2.61,3.32,3.32,0,0,0,1.82-.93,3.55,3.55,0,0,0-.09-5,3.68,3.68,0,0,0-2.47-1.09c2.29-1.11,5.39-2.42,6.39-2.33,2.27.21,6.28,2.84,6.32,2.87a.56.56,0,0,0,.78-.16.55.55,0,0,0-.16-.78c-.17-.12-4.28-2.81-6.83-3-1.47-.13-5.14,1.54-7,2.45a16.25,16.25,0,0,0-2.77-3.67,16,16,0,0,0-3.67-2.76c.91-1.88,2.59-5.55,2.46-7-.24-2.54-2.95-6.66-3.06-6.83a.56.56,0,1,0-.94.62s2.66,4,2.87,6.32c.09,1-1.22,4.1-2.33,6.39a3.7,3.7,0,0,0-1.09-2.48,3.56,3.56,0,0,0-5-.08,3.37,3.37,0,0,0-.94,1.82,6.29,6.29,0,0,0-2.61,1.54c-2.3,2.31-2.43,6.16-.69,9.86a10.7,10.7,0,0,0-7.53-.18L293,171c.2-1,1.11-8.85.35-9s-1.81,9.62-1.81,9.62l2.27,5.83c-2.17-1.25-3.89-1.92-4.4-2.36-.22-.68-2.89-10.13-3.64-9.89s2.12,10.86,2.12,10.86l2.09,1.83-4.45-1.49c-.48-.64-5.58-6.46-6.21-6s5.29,7.25,5.29,7.25l7.38,3.54c-.16.38-.3.75-.42,1.13-7.23-1.41-17.86-3.32-29.43-4.83-18.94-2.47-38.78-1.91-42.54-.4S237,190.7,242.7,192.19c11,2.9,15.58,2.28,17.07,2.1,4.51-.52,6.76-4.9,12.87-5.17,1.89-.08,11.33-1,18.68-1.79a12.8,12.8,0,0,0,2.54,5.4c-6.7-5-14.72,2.35-25.38,13-11.33,11.32-21.85,36.45-21.85,36.45s25.14-10.51,36.47-21.84c10.67-10.66,18-18.68,13-25.37a12.66,12.66,0,0,0,5.4,2.53c-.76,7.36-1.71,16.79-1.78,18.68-.27,6.11-4.65,8.37-5.19,12.89-.17,1.47-.79,6.1,2.11,17.05,1.51,5.69,13.56,26.89,15.08,23.14"/><polygon class="cls-4" points="90.7 208.67 373.23 371.78 373.23 45.56 90.7 208.67"/></svg>