<svg id="Layer_1" data-name="Layer 1" xmlns="http://www.w3.org/2000/svg" xmlns:xlink="http://www.w3.org/1999/xlink" viewBox="0 0 566.93 639.51"><defs><style>.cls-1{font-size:70px;fill:#b2bcc7;font-family:TTHoves-Thin, TT Hoves;font-weight:200;letter-spacing:0.07em;}.cls-2{letter-spacing:0.01em;}.cls-3{fill:url(#linear-gradient);}.cls-4{fill:#fff;opacity:0.2;}.cls-5{opacity:0.75;fill:url(#linear-gradient-2);}</style><linearGradient id="linear-gradient" x1="117.44" y1="50.13" x2="457.37" y2="375.72" gradientUnits="userSpaceOnUse"><stop offset="0" stop-color="#ecebf5"/><stop offset="1" stop-color="#b2bcc7"/></linearGradient><linearGradient id="linear-gradient-2" x1="218.03" y1="210.37" x2="335.05" y2="210.37" xlink:href="#linear-gradient"/></defs><text class="cls-1" transform="translate(93.97 523.64)">PL<tspan class="cls-2" x="92.75" y="0">A</tspan><tspan x="137.2" y="0">TINUM</tspan></text><path class="cls-3" d="M363.85,259.84a97,97,0,1,1,0-104.06l70.61-44.93a180.63,180.63,0,1,0,0,193.93Z"/><polygon class="cls-4" points="89.7 207.81 372.23 370.93 372.23 44.7 89.7 207.81"/><path class="cls-5" d="M310.65,268.44c1.52-3.76,2.07-23.61-.4-42.55-1.5-11.58-3.42-22.19-4.84-29.43a7.79,7.79,0,0,0,1.14-.42l3.54,7.4s6.79,5.9,7.25,5.27-5.36-5.73-6-6.2c-.12-.35-.78-2.35-1.49-4.46l1.84,2.09s10.6,2.86,10.85,2.12-9.2-3.41-9.89-3.63c-.44-.52-1.11-2.24-2.35-4.4l5.83,2.27s9.76-1,9.61-1.82-8,.16-9,.36L311,191.27a10.62,10.62,0,0,0-.18-7.52c3.71,1.74,7.55,1.6,9.86-.7a6.29,6.29,0,0,0,1.54-2.61,3.32,3.32,0,0,0,1.82-.93,3.55,3.55,0,0,0-.09-5,3.66,3.66,0,0,0-2.47-1.09c2.3-1.11,5.39-2.42,6.39-2.33,2.27.21,6.29,2.84,6.32,2.87a.56.56,0,0,0,.78-.16.55.55,0,0,0-.15-.78c-.18-.12-4.29-2.81-6.84-3.05-1.47-.13-5.13,1.54-7,2.45a16.25,16.25,0,0,0-2.77-3.67,15.77,15.77,0,0,0-3.67-2.76c.92-1.88,2.59-5.55,2.46-7-.24-2.55-2.94-6.67-3.06-6.84a.56.56,0,0,0-.94.62s2.66,4.05,2.87,6.32c.09,1-1.22,4.1-2.33,6.39a3.69,3.69,0,0,0-1.08-2.48,3.57,3.57,0,0,0-5-.08,3.4,3.4,0,0,0-.94,1.83,6.07,6.07,0,0,0-2.6,1.53c-2.31,2.31-2.44,6.16-.7,9.87a10.59,10.59,0,0,0-7.53-.18l-3.76-5.77c.2-1,1.12-8.85.35-9s-1.81,9.62-1.81,9.62l2.27,5.83c-2.16-1.25-3.89-1.92-4.4-2.36-.22-.68-2.89-10.13-3.64-9.88s2.12,10.85,2.12,10.85l2.09,1.83-4.45-1.49c-.48-.63-5.58-6.46-6.21-6s5.29,7.24,5.29,7.24l7.38,3.54a12,12,0,0,0-.42,1.14c-7.23-1.42-17.85-3.33-29.43-4.83-18.94-2.48-38.78-1.92-42.54-.41s17.45,13.59,23.14,15.09c10.95,2.89,15.59,2.27,17.07,2.1,4.51-.53,6.76-4.91,12.87-5.18,1.89-.08,11.33-1,18.68-1.79a12.8,12.8,0,0,0,2.54,5.4c-6.7-5-14.71,2.35-25.38,13-11.33,11.32-21.84,36.45-21.84,36.45s25.14-10.51,36.46-21.84c10.67-10.66,18-18.67,13-25.37a12.71,12.71,0,0,0,5.4,2.53c-.75,7.37-1.71,16.79-1.78,18.68-.27,6.11-4.65,8.37-5.19,12.89-.17,1.47-.79,6.1,2.11,17,1.51,5.69,13.56,26.9,15.08,23.15"/></svg>