<?xml version="1.0" encoding="UTF-8" standalone="no"?>
<!DOCTYPE svg PUBLIC "-//W3C//DTD SVG 1.1//EN" "http://www.w3.org/Graphics/SVG/1.1/DTD/svg11.dtd">
<svg width="100%" height="100%" viewBox="0 0 75 25" version="1.1" xmlns="http://www.w3.org/2000/svg" xmlns:xlink="http://www.w3.org/1999/xlink" xml:space="preserve" xmlns:serif="http://www.serif.com/" style="fill-rule:evenodd;clip-rule:evenodd;stroke-linejoin:round;stroke-miterlimit:2;">
    <g transform="matrix(1,0,0,-1,0,13.4835)">
        <path d="M47.309,9.191L43.094,9.191L43.094,9.726C43.09,10.144 42.93,10.296 42.504,10.296L30.965,10.296C30.867,10.296 30.766,10.289 30.672,10.269C30.496,10.242 30.406,10.129 30.406,9.961C30.402,9.543 30.398,9.125 30.406,8.707C30.41,8.535 30.625,8.375 30.863,8.355C30.934,8.347 31.008,8.351 31.082,8.351L42.602,8.351C43.34,8.351 44.066,8.25 44.758,7.98C45.473,7.699 46.105,7.3 46.609,6.718C47.059,6.199 47.305,5.601 47.312,4.922C47.316,4.433 47.32,3.949 47.312,3.457C47.297,2.5 46.848,1.754 46.098,1.156C45.156,0.41 44.066,0.027 42.855,0.023C38.75,0.011 34.645,0 30.539,0.031C29.117,0.043 27.879,0.57 26.926,1.625C26.434,2.172 26.203,2.824 26.203,3.55C26.203,3.75 26.207,3.949 26.203,4.148C26.199,4.261 26.238,4.304 26.363,4.304C27.656,4.3 28.949,4.3 30.242,4.304C30.375,4.304 30.414,4.254 30.41,4.136C30.402,3.98 30.402,3.828 30.41,3.675C30.426,3.343 30.574,3.199 30.922,3.199L42.621,3.199C42.996,3.199 43.102,3.308 43.102,3.675C43.102,4.031 43.105,4.394 43.102,4.754C43.098,5.031 42.996,5.132 42.707,5.148C42.641,5.152 42.578,5.148 42.508,5.148C38.609,5.148 34.711,5.144 30.809,5.152C29.508,5.156 28.332,5.515 27.336,6.355C26.578,7.004 26.176,7.804 26.203,8.793C26.219,9.277 26.199,9.765 26.227,10.254C26.273,11.019 26.641,11.64 27.203,12.152C28.172,13.039 29.348,13.464 30.668,13.468C34.734,13.48 38.797,13.484 42.863,13.468C44.227,13.461 45.434,13.007 46.41,12.062C47,11.488 47.316,10.789 47.312,9.976C47.309,9.722 47.309,9.464 47.309,9.191Z" style="fill:rgb(0,73,135);fill-rule:nonzero;"/>
    </g>
    <g transform="matrix(1,0,0,-1,0,13.4525)">
        <path d="M50.035,8.375C50.516,8.308 51,8.246 51.48,8.176C52.695,8.008 53.91,7.855 55.113,7.656C56.816,7.383 58.52,7.098 60.215,6.781C63.031,6.254 65.809,5.562 68.457,4.476C68.816,4.332 69.168,4.168 69.52,4C69.578,3.969 69.652,3.887 69.652,3.824C69.66,2.566 69.656,1.312 69.656,0.051C69.656,0.039 69.652,0.027 69.641,0L65.438,0L65.438,5.098L52.75,5.098L52.75,-0.004L48.543,-0.004L48.543,0.25C48.543,3.433 48.551,6.625 48.539,9.812C48.535,10.82 48.934,11.625 49.711,12.273C50.645,13.047 51.746,13.43 52.961,13.433C57.051,13.449 61.145,13.457 65.238,13.43C66.734,13.418 68.031,12.879 69.004,11.742C69.438,11.242 69.652,10.648 69.656,10C69.668,8.441 69.66,6.883 69.66,5.324C69.66,5.289 69.656,5.25 69.652,5.211C69.16,5.379 68.688,5.555 68.207,5.711C66.367,6.297 64.488,6.73 62.582,7.058C61.086,7.316 59.578,7.543 58.074,7.742C56.891,7.898 55.691,8.008 54.496,8.109C53.059,8.223 51.617,8.308 50.176,8.402C50.133,8.406 50.086,8.402 50.043,8.402C50.039,8.394 50.039,8.387 50.035,8.375ZM52.75,8.336L65.43,8.336L65.43,9.754C65.43,10.176 65.34,10.262 64.906,10.262L53.277,10.262C53.172,10.262 53.051,10.265 52.965,10.219C52.875,10.172 52.762,10.062 52.758,9.973C52.738,9.43 52.75,8.887 52.75,8.336Z" style="fill:rgb(0,73,135);fill-rule:nonzero;"/>
    </g>
    <g transform="matrix(1,0,0,-1,0,13.4755)">
        <path d="M24.867,8.371L20.648,8.371L20.648,9.937C20.645,10.121 20.547,10.238 20.355,10.269C20.266,10.285 20.176,10.285 20.078,10.285L8.398,10.285C8.062,10.269 7.949,10.164 7.949,9.835L7.949,3.64C7.949,3.316 8.074,3.195 8.406,3.195L20.207,3.195C20.531,3.195 20.645,3.312 20.648,3.628L20.648,5.109L24.844,5.109C24.852,5.081 24.863,5.058 24.863,5.031C24.863,4.425 24.891,3.812 24.844,3.203C24.781,2.328 24.305,1.652 23.613,1.113C22.684,0.398 21.617,0.019 20.438,0.015C16.316,0.003 12.199,-0.008 8.082,0.023C6.695,0.035 5.488,0.546 4.535,1.554C4.008,2.113 3.754,2.781 3.754,3.535C3.75,5.671 3.75,7.808 3.754,9.945C3.758,10.964 4.234,11.761 5.043,12.39C5.965,13.109 7.031,13.46 8.203,13.464C12.285,13.476 16.363,13.484 20.441,13.46C21.84,13.453 23.07,12.972 24.051,11.972C24.594,11.414 24.875,10.746 24.871,9.968C24.863,9.441 24.867,8.917 24.867,8.371Z" style="fill:rgb(204,0,51);fill-rule:nonzero;"/>
    </g>
    <g transform="matrix(1,0,0,-1,0,39.6865)">
        <path d="M74.691,24.824C74.781,24.472 74.879,24.125 74.949,23.769C75.16,22.714 74.672,21.906 73.961,21.179C73.16,20.363 72.172,19.82 71.137,19.351C68.988,18.378 66.738,17.699 64.441,17.14C62.121,16.574 59.773,16.152 57.406,15.843C55.828,15.64 54.238,15.468 52.648,15.335C50.973,15.199 49.289,15.109 47.609,15.015C44.82,14.863 42.031,14.906 39.242,14.917C37.809,14.925 36.383,14.984 34.953,15.039C33.449,15.101 31.949,15.171 30.449,15.265C28.77,15.375 27.09,15.492 25.418,15.656C23.379,15.851 21.336,16.085 19.301,16.332C16.473,16.675 13.66,17.136 10.863,17.683C7.418,18.363 4.008,19.164 0.676,20.265C0.477,20.332 0.277,20.406 0.078,20.472C0.066,20.476 0.059,20.488 0,20.527C0.344,20.449 0.637,20.371 0.93,20.308C3.426,19.781 5.926,19.23 8.438,18.749C10.227,18.406 12.031,18.132 13.84,17.871C15.43,17.64 17.027,17.457 18.625,17.281C20.199,17.105 21.773,16.957 23.348,16.828C24.793,16.714 26.242,16.625 27.691,16.55C29.25,16.468 30.812,16.406 32.375,16.343C33.293,16.308 34.215,16.292 35.137,16.269C36.32,16.242 37.508,16.207 38.691,16.191C39.977,16.175 41.266,16.14 42.547,16.179C44.445,16.234 46.348,16.324 48.246,16.433C49.629,16.511 51.008,16.613 52.387,16.753C54.125,16.925 55.859,17.132 57.59,17.351C60.168,17.683 62.727,18.128 65.254,18.742C67.234,19.218 69.176,19.808 71.008,20.71C72.055,21.226 73.035,21.824 73.812,22.695C74.227,23.156 74.539,23.675 74.621,24.296C74.641,24.464 74.625,24.64 74.625,24.812C74.648,24.816 74.668,24.82 74.691,24.824Z" style="fill:rgb(0,73,135);fill-rule:nonzero;"/>
    </g>
    <g transform="matrix(1,0,0,-1,0,33.9915)">
        <path d="M17.312,18.972C17.562,18.972 17.805,18.98 18.039,18.969C18.094,18.965 18.164,18.89 18.199,18.832C18.777,17.859 19.348,16.883 19.918,15.906C19.953,15.851 19.984,15.801 20.062,15.75L20.062,18.965L20.648,18.965L20.648,15.023C20.406,15.023 20.176,15.012 19.945,15.031C19.875,15.039 19.793,15.117 19.754,15.183C19.176,16.156 18.605,17.133 18.035,18.109C18,18.164 17.965,18.211 17.898,18.258L17.898,15.035L17.312,15.035L17.312,18.972Z" style="fill:rgb(0,73,135);fill-rule:nonzero;"/>
    </g>
    <g transform="matrix(1,0,0,-1,0,33.9205)">
        <path d="M50.086,16.886C50.082,17.554 50.246,18.112 50.746,18.519C51.406,19.058 52.176,19.109 52.949,18.839C53.691,18.585 54.047,18.015 54.145,17.276C54.199,16.843 54.172,16.417 53.996,16.015C53.711,15.343 53.172,14.976 52.438,14.898C51.629,14.812 50.922,14.991 50.43,15.679C50.164,16.05 50.082,16.483 50.086,16.886ZM53.598,16.948C53.535,17.21 53.5,17.499 53.395,17.765C53.195,18.261 52.793,18.534 52.242,18.569C51.645,18.605 51.172,18.386 50.906,17.859C50.613,17.28 50.613,16.675 50.863,16.085C51.102,15.53 51.574,15.273 52.23,15.288C52.773,15.304 53.25,15.636 53.434,16.171C53.512,16.409 53.539,16.667 53.598,16.948Z" style="fill:rgb(0,73,135);fill-rule:nonzero;"/>
    </g>
    <g transform="matrix(1,0,0,-1,0,33.9805)">
        <path d="M58.82,15.032L58.82,18.965C59.027,18.965 59.23,18.973 59.434,18.965C59.902,18.946 60.379,18.969 60.832,18.879C61.535,18.747 61.871,18.004 61.566,17.376C61.441,17.122 61.219,16.985 60.961,16.887C61.637,16.419 61.816,15.657 62.262,15.016C62.043,15.016 61.875,15.008 61.703,15.02C61.648,15.024 61.582,15.079 61.555,15.129C61.367,15.454 61.184,15.782 61.012,16.11C60.797,16.528 60.461,16.735 59.977,16.708C59.793,16.696 59.605,16.708 59.402,16.708L59.402,15.032L58.82,15.032ZM59.402,17.098C59.789,17.122 60.164,17.114 60.523,17.165C60.855,17.215 61.031,17.473 61.035,17.801C61.039,18.18 60.883,18.442 60.551,18.497C60.176,18.559 59.793,18.551 59.398,18.575C59.402,18.067 59.402,17.61 59.402,17.098Z" style="fill:rgb(0,73,135);fill-rule:nonzero;"/>
    </g>
    <g transform="matrix(1,0,0,-1,0,34.0815)">
        <path d="M27.586,16.727L27.586,17.129L29.156,17.129C29.156,16.59 29.16,16.059 29.152,15.527C29.152,15.484 29.098,15.422 29.051,15.402C28.168,14.965 27.254,14.879 26.336,15.273C25.684,15.555 25.379,16.102 25.312,16.77C25.273,17.168 25.289,17.566 25.438,17.945C25.699,18.594 26.207,18.957 26.898,19.082C27.543,19.203 28.176,19.137 28.785,18.887C28.98,18.812 29.07,18.707 29.039,18.504C29.027,18.422 29.035,18.336 29.035,18.211C28.945,18.273 28.875,18.312 28.809,18.355C28.262,18.707 27.66,18.809 27.023,18.672C26.445,18.555 26.098,18.199 25.969,17.644C25.879,17.27 25.879,16.898 25.969,16.52C26.102,15.934 26.496,15.57 27.113,15.473C27.551,15.406 27.984,15.422 28.406,15.574C28.523,15.613 28.574,15.672 28.57,15.797C28.562,16.098 28.566,16.398 28.566,16.719C28.23,16.727 27.918,16.727 27.586,16.727Z" style="fill:rgb(0,73,135);fill-rule:nonzero;"/>
    </g>
    <g transform="matrix(1,0,0,-1,0,33.9845)">
        <path d="M33.875,15.02C34.016,15.352 34.148,15.665 34.281,15.977C34.68,16.915 35.086,17.856 35.484,18.797C35.535,18.926 35.602,18.973 35.742,18.969C36.238,18.962 36.238,18.969 36.426,18.52C36.898,17.407 37.371,16.297 37.844,15.184C37.863,15.137 37.879,15.09 37.914,15.02C37.723,15.02 37.551,15.012 37.383,15.024C37.34,15.028 37.281,15.09 37.262,15.141C37.152,15.395 37.055,15.653 36.961,15.915C36.922,16.024 36.867,16.063 36.746,16.063C36.184,16.055 35.621,16.059 35.055,16.063C34.938,16.063 34.875,16.028 34.84,15.919C34.75,15.657 34.637,15.403 34.547,15.145C34.512,15.051 34.461,15.016 34.359,15.02C34.207,15.028 34.059,15.02 33.875,15.02ZM35.922,18.399C35.906,18.403 35.891,18.403 35.875,18.407C35.613,17.766 35.352,17.13 35.082,16.481L36.715,16.481C36.445,17.137 36.184,17.766 35.922,18.399Z" style="fill:rgb(0,73,135);fill-rule:nonzero;"/>
    </g>
    <g transform="matrix(1,0,0,-1,0,33.9835)">
        <path d="M69.641,18.953L69.641,18.562L67.445,18.562L67.445,17.355L69.531,17.355L69.531,16.941L67.449,16.941L67.449,15.433L69.688,15.433L69.688,15.031L66.863,15.031L66.863,18.953L69.641,18.953Z" style="fill:rgb(0,73,135);fill-rule:nonzero;"/>
    </g>
    <g transform="matrix(1,0,0,-1,0,33.9755)">
        <path d="M7.227,18.359C6.898,18.441 6.594,18.562 6.277,18.597C6.004,18.628 5.711,18.593 5.438,18.531C5.133,18.46 4.98,18.21 4.988,17.925C4.996,17.664 5.148,17.503 5.391,17.437C5.711,17.355 6.035,17.304 6.359,17.222C6.551,17.175 6.742,17.113 6.914,17.031C7.324,16.843 7.496,16.496 7.492,16.078C7.488,15.636 7.293,15.296 6.859,15.113C6.25,14.859 5.617,14.89 4.988,15.023C4.855,15.046 4.723,15.097 4.586,15.124C4.43,15.156 4.367,15.242 4.391,15.394C4.402,15.488 4.395,15.581 4.395,15.691C4.645,15.597 4.867,15.511 5.098,15.441C5.504,15.32 5.918,15.288 6.332,15.406C6.68,15.507 6.875,15.73 6.883,16.031C6.891,16.328 6.727,16.554 6.379,16.66C6.109,16.746 5.824,16.785 5.547,16.847C5.422,16.871 5.301,16.898 5.18,16.937C4.609,17.124 4.367,17.421 4.375,17.941C4.383,18.417 4.688,18.792 5.215,18.941C5.859,19.117 6.5,19.023 7.137,18.863C7.176,18.855 7.223,18.796 7.227,18.757C7.23,18.628 7.227,18.488 7.227,18.359Z" style="fill:rgb(0,73,135);fill-rule:nonzero;"/>
    </g>
    <g transform="matrix(1,0,0,-1,0,33.9605)">
        <path d="M43.199,16.609L43.199,15.012L42.629,15.012L42.629,18.945C43.105,18.945 43.578,18.949 44.051,18.941C44.223,18.938 44.398,18.918 44.562,18.879C45.195,18.727 45.496,18.324 45.461,17.68C45.43,17.117 45.066,16.734 44.449,16.649C44.266,16.621 44.082,16.617 43.898,16.609C43.68,16.606 43.457,16.609 43.199,16.609ZM43.211,17.035C43.551,17.035 43.879,17.008 44.195,17.043C44.586,17.086 44.816,17.332 44.844,17.66C44.879,18.078 44.73,18.391 44.367,18.461C43.992,18.539 43.602,18.531 43.211,18.563L43.211,17.035Z" style="fill:rgb(0,73,135);fill-rule:nonzero;"/>
    </g>
    <g transform="matrix(1,0,0,-1,0,33.9795)">
        <rect x="11.988" y="15.027" width="0.559" height="3.926" style="fill:rgb(0,73,135);"/>
    </g>
</svg>
